<?xml version="1.0" encoding="UTF-8" standalone="no"?>
<!-- Created with Inkscape (http://www.inkscape.org/) -->

<svg
   xmlns:osb="http://www.openswatchbook.org/uri/2009/osb"
   xmlns:dc="http://purl.org/dc/elements/1.1/"
   xmlns:cc="http://creativecommons.org/ns#"
   xmlns:rdf="http://www.w3.org/1999/02/22-rdf-syntax-ns#"
   xmlns:svg="http://www.w3.org/2000/svg"
   xmlns="http://www.w3.org/2000/svg"
   xmlns:sodipodi="http://sodipodi.sourceforge.net/DTD/sodipodi-0.dtd"
   xmlns:inkscape="http://www.inkscape.org/namespaces/inkscape"
   width="165.75467"
   height="191.34097"
   viewBox="0 0 155.39501 179.38215"
   id="svg2"
   version="1.1"
   inkscape:version="0.92.3 (2405546, 2018-03-11)"
   sodipodi:docname="projmaker_hex.svg"
   inkscape:export-filename="C:\_src\own\bitbucket\projmaker\figures\projmaker_hex.png"
   inkscape:export-xdpi="69.864105"
   inkscape:export-ydpi="69.864105">
  <defs
     id="defs4">
    <linearGradient
       id="linearGradient4809"
       osb:paint="solid">
      <stop
         style="stop-color:#0000ff;stop-opacity:1;"
         offset="0"
         id="stop4807" />
    </linearGradient>
  </defs>
  <sodipodi:namedview
     id="base"
     pagecolor="#ffffff"
     bordercolor="#666666"
     borderopacity="1.0"
     inkscape:pageopacity="0.0"
     inkscape:pageshadow="2"
     inkscape:zoom="4.4318788"
     inkscape:cx="82.877335"
     inkscape:cy="95.670486"
     inkscape:document-units="px"
     inkscape:current-layer="layer1"
     showgrid="false"
     inkscape:window-width="1920"
     inkscape:window-height="1017"
     inkscape:window-x="-8"
     inkscape:window-y="-8"
     inkscape:window-maximized="1"
     fit-margin-top="0"
     fit-margin-left="0"
     fit-margin-right="0"
     fit-margin-bottom="0"
     units="px"
     inkscape:snap-global="false" />
  <metadata
     id="metadata7">
    <rdf:RDF>
      <cc:Work
         rdf:about="">
        <dc:format>image/svg+xml</dc:format>
        <dc:type
           rdf:resource="http://purl.org/dc/dcmitype/StillImage" />
        <dc:title></dc:title>
      </cc:Work>
    </rdf:RDF>
  </metadata>
  <g
     inkscape:label="Hintergrund"
     inkscape:groupmode="layer"
     id="layer1"
     transform="translate(10430.852,3055.2048)"
     style="display:inline">
    <path
       sodipodi:type="star"
       style="display:inline;fill:#ddddff;stroke:#000000;stroke-width:7.12730455;stroke-miterlimit:4;stroke-dasharray:none;stroke-opacity:1;fill-opacity:1"
       id="path19"
       sodipodi:sides="6"
       sodipodi:cx="-10352.893"
       sodipodi:cy="-2965.1729"
       sodipodi:r1="85.575577"
       sodipodi:r2="74.110634"
       sodipodi:arg1="2.6179939"
       sodipodi:arg2="3.1415927"
       inkscape:flatsided="true"
       inkscape:rounded="0"
       inkscape:randomized="0"
       d="m -10427.003,-2922.3851 0,-85.5755 74.11,-42.7878 74.111,42.7878 0,85.5755 -74.111,42.7878 z" />
    <text
       xml:space="preserve"
       style="font-style:normal;font-weight:normal;font-size:16.9223671px;line-height:1.25;font-family:sans-serif;letter-spacing:0px;word-spacing:0px;fill:#000000;fill-opacity:1;stroke:none;stroke-width:0.4230592"
       x="-10394.413"
       y="-3007.9839"
       id="text6311"><tspan
         sodipodi:role="line"
         id="tspan6309"
         x="-10394.413"
         y="-3007.9839"
         style="font-style:normal;font-variant:normal;font-weight:bold;font-stretch:normal;font-family:'Segoe UI';-inkscape-font-specification:'Segoe UI Bold';stroke-width:0.4230592">projmaker</tspan></text>
  </g>
  <g
     inkscape:groupmode="layer"
     id="layer2"
     inkscape:label="Vordergrund">
    <path
       id="path4542"
       d="m 1675.2904,68.913983 h -44.946 v -45.00003 c 0,-24.85320022 -20.147,-45 -45,-45 h -150 l -60,-60 h -150.0002 c -24.8529,0 -45,20.1468 -45,45 V 233.91399 c 0,24.85309 20.1471,45 45,45 h 375.0002 a 45.000939,45.000939 0 0 0 38.16,-21.15 l 74.9451,-120 c 18.7009,-29.92221 -2.8481,-68.850007 -38.1591,-68.850007 z m -444.3212,-105.00003 h 125.7362 l 60,60 h 163.014 a 5.6250001,5.6250001 0 0 1 5.625,5.625 v 39.37503 h -262.5 a 45.000002,45.000002 0 0 0 -38.5292,21.75181 l -58.971,97.731487 V -30.467747 a 5.6184376,5.6184376 0 0 1 5.625,-5.6183 z m 369.3752,270.000037 h -352.5002 l 72.4073,-120 h 355.0929 z"
       inkscape:connector-curvature="0"
       style="display:inline;stroke-width:0.9375" />
    <path
       id="path4582"
       d="m 1662.2006,-565.85087 h -180 l -60,-60 h -150 c -24.853,0 -45,20.1469 -45,45 v 270 c 0,24.8531 20.147,45 45,45 h 390 c 24.853,0 45,-20.1469 45,-45 v -210 c 0,-24.8531 -20.147,-45 -45,-45 z m -5.625,255 h -378.75 c -3.107,0 -5.625,-2.5106 -5.625,-5.6175 v -258.765 a 5.6184376,5.6184376 0 0 1 5.625,-5.6175 h 125.736 l 60,60 h 193.014 a 5.6250001,5.6250001 0 0 1 5.625,5.625 v 198.75 a 5.6250001,5.6250001 0 0 1 -5.625,5.625 z"
       inkscape:connector-curvature="0"
       style="display:inline;stroke-width:0.9375" />
    <g
       id="g4771"
       transform="translate(422.96855,-270.41534)">
      <path
         style="display:inline;stroke-width:0.9375"
         inkscape:connector-curvature="0"
         d="M 1173.1403,-1058.6786 H 993.14029 l -60,-60 H 783.14017 c -24.85296,0 -44.99996,20.1469 -44.99996,45 v 270.00002 c 0,24.85312 20.147,45.00002 44.99996,45.00002 h 390.00013 c 24.8529,0 45,-20.1469 45,-45.00002 v -210.00002 c 0,-24.8531 -20.1471,-45 -45,-45 z"
         id="path4571" />
      <g
         id="g4753">
        <g
           style="clip-rule:nonzero;display:inline;fill-rule:nonzero;image-rendering:optimizeQuality;shape-rendering:geometricPrecision;text-rendering:geometricPrecision"
           id="g4569"
           transform="matrix(-0.04907526,0,0,0.04907526,1063.1102,-1084.4826)">
          <path
             style="fill:#ffbf00;fill-opacity:1"
             d="m 4747,1972 42,273 c 13,89 -32,174 -111,215 -36,18 -71,35 -109,51 -39,16 -76,30 -112,42 -85,30 -176,2 -231,-69 l -169,-222 c -22,-1 -45,-3 -67,-5 -21,-3 -41,-7 -62,-11 l -216,173 c -70,56 -166,60 -241,11 -36,-23 -68,-46 -98,-68 -33,-25 -63,-50 -93,-76 -68,-59 -90,-152 -55,-235 l 106,-257 c -10,-20 -19,-40 -28,-61 -1,1 -21,-53 -22,-58 l -257,-101 c -84,-33 -136,-114 -131,-203 2,-43 6,-83 10,-120 5,-39 12,-78 19,-118 18,-88 88,-154 176,-165 l 276,-37 c 12,-18 25,-36 39,-54 12,-17 26,-33 40,-49 l -42,-273 c -13,-89 32,-175 112,-215 35,-18 70,-35 108,-51 13,-5 105,-43 112,-43 85,-29 176,-1 231,70 l 169,222 c 22,1 45,3 66,5 22,3 42,7 63,11 l 216,-173 c 70,-56 166,-60 241,-11 36,23 68,46 98,68 33,25 63,50 93,76 68,59 90,152 55,235 l -106,257 c 10,20 19,40 28,61 8,19 16,39 22,58 l 257,101 c 84,33 136,114 131,203 -2,43 -6,83 -10,120 -5,39 -12,78 -19,118 -18,88 -88,154 -176,165 l -276,37 c -12,18 -25,36 -39,54 -12,17 -26,33 -40,49 z"
             id="path4703"
             inkscape:connector-curvature="0" />
          <path
             style="fill:#e6e6e6;fill-opacity:1"
             d="m 4578,1861 c 18,-18 35,-38 51,-59 15,-21 30,-42 44,-65 21,-36 63,-58 103,-63 l 300,-39 c 11,-2 20,-96 22,-110 2,-13 12,-105 9,-110 -2,-4 -257,-102 -284,-113 -14,-5 -27,-13 -39,-22 -12,0 -41,-45 -45,-62 -8,-26 -16,-51 -26,-75 -11,-24 -22,-48 -35,-70 -12,-22 -16,-48 -14,-73 1,-13 11,-46 11,-49 12,-27 118,-278 117,-283 -2,-5 -75,-63 -85,-70 -29,-22 -58,-42 -87,-61 -9,-6 -219,169 -244,188 -30,25 -76,40 -114,31 -26,-7 -52,-12 -78,-15 -26,-3 -52,-5 -78,-5 -47,-6 -78,-21 -107,-59 -41,-53 -198,-263 -191,-241 -37,12 -70,25 -100,37 -30,13 -62,28 -96,45 -9,5 37,275 42,305 6,40 -3,86 -32,116 -18,18 -35,38 -51,59 -15,21 -30,42 -44,65 -20,35 -64,58 -103,63 l -300,39 c -11,2 -20,96 -22,110 -2,14 -16,108 -5,113 l 281,110 c 38,15 72,43 83,84 3,10 26,73 26,75 20,47 53,89 49,143 -1,16 -5,33 -11,49 -12,28 -122,279 -114,286 28,25 55,47 82,67 29,22 58,42 87,61 9,6 219,-169 244,-188 31,-25 75,-40 114,-31 26,7 52,12 77,15 27,3 53,5 79,5 42,1 82,26 107,59 18,23 182,240 187,242 -1,4 92,-33 104,-38 12,-5 96,-42 99,-48 2,-3 -41,-274 -45,-303 -6,-39 4,-85 32,-115 z"
             id="path4705"
             inkscape:connector-curvature="0" />
          <path
             style="fill:#ffbf00;fill-opacity:1"
             d="m 4100,900.00001 c 138,0 263,56 354,145.99999 90,91 146,216 146,354 0,138 -56,263 -146,354 -91,90 -216,146 -354,146 -138,0 -263,-56 -354,-146 -90,-91 -146,-216 -146,-354 0,-138 56,-263 146,-354 91,-89.99999 216,-145.99999 354,-145.99999 z"
             id="path4701"
             inkscape:connector-curvature="0" />
          <path
             style="fill:#000000;fill-opacity:1"
             d="m 4312,1188 c -54,-54 -129,-88 -212,-88 -83,0 -158,34 -212,88 -54,54 -88,129 -88,212 0,83 34,158 88,212 54,54 129,88 212,88 83,0 158,-34 212,-88 54,-54 88,-129 88,-212 0,-83 -34,-158 -88,-212 z"
             id="curve29"
             inkscape:connector-curvature="0" />
          <path
             inkscape:connector-curvature="0"
             style="fill:#0000ff"
             d="m 3179,2459.0002 c 19,14 36,28 53,42 16,14 33,29 50,44 l 328,-89 c 95,-26 194,12 248,93 28,42 53,81 75,120 22,39 44,80 65,124 43,90 25,193 -46,262 l -244,236 c 5,23 9,45 13,67 4,22 7,44 9,67 l 309,141.9995 c 89,41 141,134 130,231 0,0 -18,128 -20,139 -9,49 -19,95 -30,138 -24,95 -105,163 -204,170 l -339,25 c -10,19 -21,38 -32,58 -12,20 -24,39 -36,57 l 145,307 c 42,90 22,194 -49,262 -36,34 -71,65 -105,93 -34,28 -71,57 -112,86 -79,57 -186,57 -266,0 h 1 l -276,-199 c -21,8 -42,16 -63,24 -18,6 -39,13 -62,20 l -87,328 c -25,96 -107,163 -206,169 -46,3 -92,4 -140,4 -50,-1 -96,-2 -141,-6 -98,-7 -180,-76 -204,-171 l -83,-330 c -20,-7 -41,-14 -61,-21 -22,-9 -43,-17 -61,-25 l -278,196 c -80,57 -187,56 -265,-2 -37,-27 -74,-57 -111,-89 -38,-31 -72,-63 -105,-95 -71,-69 -89,-172 -46,-261 l 149,-307 c -12,-18 -23,-37 -34,-55 -11,-19 -21,-38 -31,-57 l -339,-28 c -98,-9 -178,-78 -201,-173 -12,-48 -22,-94 -29,-140 -8,-44 -14,-91 -19,-140 -9,-98 44,-189 134,-229 l 310,-138.9995 c 2,-20 6,-41 10,-64 4,-22 8,-43 13,-64 l -242,-240 c -70,-70 -87,-173 -44,-262 21,-42 44,-83 68,-125 24,-41 49,-81 75,-119 56,-81 155,-118 250,-91 l 327,93 c 15,-14 32,-28 50,-43 17,-14 34,-28 51,-41 l -31,-339 c -9,-98 44,-189 134,-228 42,-19 85,-36 132,-53 45,-16 90,-30 134,-43 48,-13 96,-11 139,5 44,16 83,46 110,86 l 191,282 c 21,-1 43,-2 66,-1 24,0 46,0 67,1 l 194,-280 c 57,-81 156,-116 250,-88 48,14 93,28 134,44 44,16 87,34 131,53 89,41 142,133 132,231 z"
             id="path4687" />
          <path
             inkscape:connector-curvature="0"
             style="fill:#e6e6e6"
             d="m 3103,2653.0002 c -21,-17 -41,-33 -59,-47 -47,-35 -71,-90 -65,-148 l 37,-358 c 1,-13 -4,-22 -16,-28 -40,-17 -78,-33 -118,-48 -41,-15 -81,-28 -120,-40 -13,-3 -23,1 -31,11 l -206,297 c -32,47 -87,73 -144,70 -27,-2 -53,-3 -75,-3 -24,0 -49,0 -76,2 -58,3 -111,-24 -143,-72 l -202,-298 c -8,-10 -19,-14 -31,-11 -44,13 -84,25 -121,39 -37,13 -76,29 -118,47 -12,6 -18,15 -17,28 l 33,360 c 5,58 -19,112 -66,146 -21,16 -41,31 -58,45 -18,15 -36,31 -55,50 -43,39 -101,54 -157,38 l -346,-99 c -13,-3 -23,0 -31,11 -25,38 -48,73 -68,108 -21,35 -41,72 -61,112 -5,12 -3,23 6,32 l 256,254 c 41,41 57,98 43,155 -6,25 -11,49 -15,72 -4,21 -7,45 -11,73 -7,57.9995 -42,105.9995 -95,129.9995 l -329,147 c -12,5 -17,16 -16,28 4,42 9,84 17,127 7,42 15,83 25,125 3,12 12,19 25,20 l 359,30 c 58,5 108,39 133,91 11,22 23,44 35,65 12,22 25,43 38,63 32,49 36,108 10,160 l -157,325 c -6,11 -4,23 6,32 32,32 63,60 94,86 29,25 63,51 100,79 10,8 21,8 32,0 l 294,-207 c 47,-34 108,-40 160,-16 26,11 49,20 69,28 24,9 47,16 70,24 56,16 97,60 111,116 l 88,350 c 3,12 11,19 25,20 46,3 88,5 127,6 40,0 82,-1 128,-4 12,-1 21,-8 24,-21 l 92,-347 c 15,-56 57,-100 113,-116 v 1 c 21,-6 45,-14 71,-24 24,-8 47,-17 70,-27 53,-23 112,-16 159,18 l 293,211 c 10,8 21,8 32,0 33,-24 66,-49 100,-78 33,-27 65,-55 95,-84 10,-9 12,-20 6,-31 l -153,-326 c -25,-53 -20,-112 12,-160 15,-22 28,-43 41,-65 12,-20 24,-42 36,-66 26,-51 76,-85 134,-89 l 359,-26 c 13,-1 21,-8 24,-20 12,-46 21,-86 28,-124 6,-32 18,-95 18,-126 1,-13 -4,-22 -16,-28 l -327,-151 c -52,-24 -88,-73 -94,-130.9995 -2,-25 -6,-50 -10,-75 -4,-25 -9,-50 -15,-75 -13,-56 4,-113 45,-153 l 259,-251 c 9,-9 11,-21 5,-32 -18,-38 -37,-75 -59,-112 -22,-38 -44,-74 -66,-108 -8,-11 -18,-14 -31,-11 l -347,95 c -57,15 -114,0 -156,-40 -18,-17 -37,-34 -56,-51 z"
             id="path4685" />
          <path
             inkscape:connector-curvature="0"
             style="fill:#0000ff"
             d="m 2300,2900.0002 c 387,0 700,313 700,699.9995 0,387 -313,700 -700,700 -387,0 -700,-313 -700,-700 0,-386.9995 313,-699.9995 700,-699.9995 z"
             id="path4683" />
          <path
             inkscape:connector-curvature="0"
             style="fill:#000000"
             d="m 2300,3100.0002 c -276,0 -500,224 -500,499.9995 0,276 224,500 500,500 276,0 500,-224 500,-500 0,-275.9995 -224,-499.9995 -500,-499.9995 z"
             id="path4673" />
        </g>
        <g
           id="g4737">
          <path
             inkscape:transform-center-y="14.80538"
             inkscape:transform-center-x="-2.1300558"
             id="path4707"
             d="m 1124.8584,-909.36313 4.9763,12.6087 c 1.5891,4.11807 0.359,8.67488 -2.9761,11.49539 -1.5273,1.25259 -3.0176,2.44645 -4.6623,3.62507 -1.6926,1.18946 -3.3112,2.26149 -4.9037,3.22693 -3.7418,2.35928 -8.4011,2.008 -11.8047,-0.79223 l -10.5001,-8.78807 c -1.0637,0.19117 -2.1861,0.34538 -3.2608,0.48871 -1.0376,0.0846 -2.0382,0.11049 -3.0865,0.14721 l -8.4576,10.62626 c -2.7416,3.44061 -7.2923,4.67512 -11.414,3.14501 -1.9728,-0.70957 -3.7542,-1.46258 -5.429,-2.18949 -1.8508,-0.83786 -3.5582,-1.70832 -5.2765,-2.62666 -3.8952,-2.08473 -5.9586,-6.29641 -5.1855,-10.64886 l 2.2805,-13.45106 c -0.6959,-0.84851 -1.3439,-1.70787 -2.0028,-2.61508 -0.037,0.0587 -1.5809,-2.30826 -1.6831,-2.53669 l -13.3967,-2.04116 c -4.3786,-0.6666 -7.7473,-3.97804 -8.4749,-8.29168 -0.3717,-2.07955 -0.6149,-4.03733 -0.8254,-5.85151 -0.1845,-1.92076 -0.2732,-3.86326 -0.3729,-5.85361 -0.094,-4.40703 2.5383,-8.32619 6.6302,-9.80879 l 12.8066,-4.76958 c 0.3787,-0.99182 0.8052,-1.99449 1.2796,-3.00805 0.3896,-0.94395 0.8858,-1.8618 1.382,-2.77961 l -4.9764,-12.60871 c -1.589,-4.11806 -0.3699,-8.72273 3.024,-11.50626 1.4795,-1.24172 2.9697,-2.43558 4.6145,-3.61419 0.5678,-0.38054 4.5577,-3.19874 4.8928,-3.27479 3.7527,-2.31143 8.412,-1.96021 11.8156,0.84009 l 10.4999,8.78807 c 1.0638,-0.19117 2.1863,-0.34538 3.2131,-0.47784 1.0854,-0.0955 2.0861,-0.12136 3.1344,-0.15809 l 8.4576,-10.62626 c 2.7415,-3.4406 7.2923,-4.67511 11.414,-3.145 1.9728,0.70957 3.7542,1.46257 5.4289,2.18948 1.8509,0.83787 3.5583,1.70833 5.2765,2.62666 3.8953,2.08473 5.9587,6.29641 5.1855,10.64888 l -2.2804,13.45106 c 0.6959,0.8485 1.3439,1.70786 2.0028,2.61506 0.5893,0.82236 1.1895,1.6926 1.683,2.5367 l 13.3968,2.04116 c 4.3785,0.6666 7.7472,3.97804 8.4749,8.29167 0.3717,2.07957 0.6147,4.03733 0.8253,5.85152 0.1845,1.92076 0.2733,3.86326 0.3729,5.8536 0.094,4.40703 -2.5382,8.3262 -6.6301,9.8088 l -12.8067,4.76958 c -0.3787,0.99182 -0.8052,1.99448 -1.2796,3.00804 -0.3895,0.94395 -0.8858,1.86181 -1.3819,2.77962 z"
             style="clip-rule:nonzero;fill:#ffbf00;fill-opacity:1;fill-rule:nonzero;stroke-width:0.04907526;image-rendering:optimizeQuality;shape-rendering:geometricPrecision;text-rendering:geometricPrecision"
             inkscape:connector-curvature="0" />
          <path
             inkscape:transform-center-y="14.805376"
             inkscape:transform-center-x="-2.1329524"
             id="path4709"
             d="m 1115.5645,-912.83903 c 0.6658,-1.057 1.2621,-2.19886 1.7995,-3.37771 0.4898,-1.16797 0.9795,-2.33598 1.3996,-3.5888 0.6138,-1.95104 2.3848,-3.46026 4.2448,-4.13417 l 13.9334,-5.12605 c 0.5047,-0.2153 -0.086,-4.81164 -0.1424,-5.50335 -0.046,-0.64387 -0.5666,-5.1554 -0.7644,-5.36211 -0.1391,-0.16973 -13.4077,-2.08901 -14.8193,-2.32207 -0.7243,-0.0872 -1.4333,-0.3288 -2.1055,-0.62913 -0.5742,0.13039 -2.4511,-1.70808 -2.8272,-2.4782 -0.6653,-1.15736 -1.3199,-2.26688 -2.0592,-3.30679 -0.7872,-1.02906 -1.5744,-2.05811 -2.4356,-2.96973 -0.8133,-0.92247 -1.2873,-2.1233 -1.4632,-3.34145 -0.094,-0.63299 0.027,-2.32096 0,-2.46455 0.2809,-1.42253 2.6265,-14.58646 2.5243,-14.81488 -0.1499,-0.21758 -4.2738,-2.20008 -4.8284,-2.42644 -1.627,-0.73776 -3.2321,-1.37981 -4.8265,-1.974 -0.4957,-0.18937 -8.6443,10.46741 -9.6344,11.64834 -1.1641,1.5224 -3.2024,2.74005 -5.1189,2.72226 -1.3205,-0.0523 -2.619,-0.009 -3.8959,0.12964 -1.2768,0.13891 -2.5428,0.32571 -3.7871,0.6082 -2.3145,0.22355 -3.9611,-0.15784 -5.7618,-1.66096 -2.5381,-2.09096 -12.3334,-10.43512 -11.7594,-9.45832 -1.6403,0.97633 -3.0783,1.957 -4.3837,2.85726 -1.2946,0.94814 -2.6629,2.01368 -4.1053,3.19666 -0.3765,0.33708 4.7587,12.75874 5.3239,14.14015 0.7218,1.8491 0.7909,4.14831 -0.2711,5.89915 -0.6659,1.05698 -1.2621,2.19885 -1.7996,3.3777 -0.4898,1.16797 -0.9795,2.33598 -1.3995,3.5888 -0.5769,1.89232 -2.4326,3.47112 -4.2448,4.13417 l -13.9336,5.12608 c -0.5045,0.21527 0.086,4.81161 0.1426,5.50333 0.056,0.69168 0.4076,5.34242 0.9883,5.46221 l 14.6432,2.2111 c 1.9816,0.30499 3.913,1.27556 4.8849,3.11819 0.2521,0.44598 2.0374,3.21107 2.0591,3.3068 1.4679,2.03197 3.5035,3.68341 3.8988,6.31118 0.1261,0.77655 0.1192,1.63362 0,2.46455 -0.2701,1.47037 -2.8072,14.67776 -2.3482,14.92585 1.6117,0.89218 3.1427,1.65168 4.6522,2.31546 1.627,0.73777 3.2321,1.3798 4.8265,1.974 0.4958,0.18936 8.6444,-10.46741 9.6345,-11.64835 1.2119,-1.53327 3.1547,-2.7292 5.1189,-2.72223 1.3203,0.0523 2.6189,0.009 3.8479,-0.11879 1.3248,-0.14978 2.5908,-0.33657 3.835,-0.61906 2.021,-0.40848 4.2068,0.35331 5.7619,1.66096 1.1114,0.90513 11.3177,9.50824 11.5788,9.54963 0,0.20235 4.0443,-2.57892 4.5642,-2.94858 0.52,-0.36968 4.138,-3.05309 4.2164,-3.37285 0.062,-0.16528 -4.9393,-12.66741 -5.4459,-14.01182 -0.7108,-1.80123 -0.7321,-4.11133 0.2823,-5.85127 z"
             style="clip-rule:nonzero;fill:#e6e6e6;fill-opacity:1;fill-rule:nonzero;stroke-width:0.04907526;image-rendering:optimizeQuality;shape-rendering:geometricPrecision;text-rendering:geometricPrecision"
             inkscape:connector-curvature="0" />
          <path
             inkscape:transform-center-y="14.805377"
             inkscape:transform-center-x="-2.1300758"
             inkscape:connector-curvature="0"
             id="path4711"
             d="m 1082.247,-953.63621 c 6.6042,-1.49945 13.1948,-0.17761 18.5277,3.14079 5.296,3.37713 9.3342,8.75084 10.8336,15.35513 1.4994,6.60432 0.1776,13.19495 -3.1408,18.52787 -3.3771,5.2959 -8.7508,9.33408 -15.3551,10.83351 -6.6043,1.49945 -13.195,0.17762 -18.5278,-3.14078 -5.296,-3.37714 -9.3341,-8.75084 -10.8335,-15.35515 -1.4995,-6.6043 -0.1777,-13.19493 3.1408,-18.52784 3.377,-5.2959 8.7507,-9.3341 15.3551,-10.83353 z"
             style="clip-rule:nonzero;fill:#ffbf00;fill-opacity:1;fill-rule:nonzero;stroke-width:0.04907526;image-rendering:optimizeQuality;shape-rendering:geometricPrecision;text-rendering:geometricPrecision" />
          <path
             inkscape:transform-center-y="14.805377"
             inkscape:transform-center-x="-2.1300785"
             id="path4713"
             d="m 1095.522,-942.1568 c -3.171,-1.99756 -7.1299,-2.80977 -11.1019,-1.90795 -3.9721,0.90183 -7.1921,3.34389 -9.1897,6.51492 -1.9976,3.17103 -2.8098,7.12977 -1.9079,11.10191 0.9018,3.97216 3.3439,7.19202 6.5148,9.1896 3.171,1.99755 7.1299,2.80977 11.102,1.90796 3.9721,-0.90183 7.1921,-3.3439 9.1897,-6.51492 1.9975,-3.17103 2.8098,-7.12976 1.9078,-11.10192 -0.9018,-3.97216 -3.3439,-7.19201 -6.5148,-9.1896 z"
             style="clip-rule:nonzero;fill:#000000;fill-opacity:1;fill-rule:nonzero;stroke-width:0.04907526;image-rendering:optimizeQuality;shape-rendering:geometricPrecision;text-rendering:geometricPrecision"
             inkscape:connector-curvature="0" />
        </g>
      </g>
    </g>
    <g
       transform="matrix(0.22670385,0,0,0.22670385,-143.78874,310.334)"
       id="g4805">
      <path
         id="path4773"
         d="M 1173.1403,-1058.6786 H 993.14029 l -60,-60 H 783.14017 c -24.85296,0 -44.99996,20.1469 -44.99996,45 v 270.00002 c 0,24.85312 20.147,45.00002 44.99996,45.00002 h 390.00013 c 24.8529,0 45,-20.1469 45,-45.00002 v -210.00002 c 0,-24.8531 -20.1471,-45 -45,-45 z"
         inkscape:connector-curvature="0"
         style="display:inline;stroke-width:0.9375" />
      <g
         id="g4803">
        <g
           transform="matrix(-0.04907526,0,0,0.04907526,1063.1102,-1084.4826)"
           id="g4791"
           style="clip-rule:nonzero;display:inline;fill-rule:nonzero;image-rendering:optimizeQuality;shape-rendering:geometricPrecision;text-rendering:geometricPrecision">
          <path
             inkscape:connector-curvature="0"
             id="path4775"
             d="m 4747,1972 42,273 c 13,89 -32,174 -111,215 -36,18 -71,35 -109,51 -39,16 -76,30 -112,42 -85,30 -176,2 -231,-69 l -169,-222 c -22,-1 -45,-3 -67,-5 -21,-3 -41,-7 -62,-11 l -216,173 c -70,56 -166,60 -241,11 -36,-23 -68,-46 -98,-68 -33,-25 -63,-50 -93,-76 -68,-59 -90,-152 -55,-235 l 106,-257 c -10,-20 -19,-40 -28,-61 -1,1 -21,-53 -22,-58 l -257,-101 c -84,-33 -136,-114 -131,-203 2,-43 6,-83 10,-120 5,-39 12,-78 19,-118 18,-88 88,-154 176,-165 l 276,-37 c 12,-18 25,-36 39,-54 12,-17 26,-33 40,-49 l -42,-273 c -13,-89 32,-175 112,-215 35,-18 70,-35 108,-51 13,-5 105,-43 112,-43 85,-29 176,-1 231,70 l 169,222 c 22,1 45,3 66,5 22,3 42,7 63,11 l 216,-173 c 70,-56 166,-60 241,-11 36,23 68,46 98,68 33,25 63,50 93,76 68,59 90,152 55,235 l -106,257 c 10,20 19,40 28,61 8,19 16,39 22,58 l 257,101 c 84,33 136,114 131,203 -2,43 -6,83 -10,120 -5,39 -12,78 -19,118 -18,88 -88,154 -176,165 l -276,37 c -12,18 -25,36 -39,54 -12,17 -26,33 -40,49 z"
             style="fill:#ffbf00;fill-opacity:1" />
          <path
             inkscape:connector-curvature="0"
             id="path4777"
             d="m 4578,1861 c 18,-18 35,-38 51,-59 15,-21 30,-42 44,-65 21,-36 63,-58 103,-63 l 300,-39 c 11,-2 20,-96 22,-110 2,-13 12,-105 9,-110 -2,-4 -257,-102 -284,-113 -14,-5 -27,-13 -39,-22 -12,0 -41,-45 -45,-62 -8,-26 -16,-51 -26,-75 -11,-24 -22,-48 -35,-70 -12,-22 -16,-48 -14,-73 1,-13 11,-46 11,-49 12,-27 118,-278 117,-283 -2,-5 -75,-63 -85,-70 -29,-22 -58,-42 -87,-61 -9,-6 -219,169 -244,188 -30,25 -76,40 -114,31 -26,-7 -52,-12 -78,-15 -26,-3 -52,-5 -78,-5 -47,-6 -78,-21 -107,-59 -41,-53 -198,-263 -191,-241 -37,12 -70,25 -100,37 -30,13 -62,28 -96,45 -9,5 37,275 42,305 6,40 -3,86 -32,116 -18,18 -35,38 -51,59 -15,21 -30,42 -44,65 -20,35 -64,58 -103,63 l -300,39 c -11,2 -20,96 -22,110 -2,14 -16,108 -5,113 l 281,110 c 38,15 72,43 83,84 3,10 26,73 26,75 20,47 53,89 49,143 -1,16 -5,33 -11,49 -12,28 -122,279 -114,286 28,25 55,47 82,67 29,22 58,42 87,61 9,6 219,-169 244,-188 31,-25 75,-40 114,-31 26,7 52,12 77,15 27,3 53,5 79,5 42,1 82,26 107,59 18,23 182,240 187,242 -1,4 92,-33 104,-38 12,-5 96,-42 99,-48 2,-3 -41,-274 -45,-303 -6,-39 4,-85 32,-115 z"
             style="fill:#e6e6e6;fill-opacity:1" />
          <path
             inkscape:connector-curvature="0"
             id="path4779"
             d="m 4100,900.00001 c 138,0 263,56 354,145.99999 90,91 146,216 146,354 0,138 -56,263 -146,354 -91,90 -216,146 -354,146 -138,0 -263,-56 -354,-146 -90,-91 -146,-216 -146,-354 0,-138 56,-263 146,-354 91,-89.99999 216,-145.99999 354,-145.99999 z"
             style="fill:#ffbf00;fill-opacity:1" />
          <path
             inkscape:connector-curvature="0"
             id="path4781"
             d="m 4312,1188 c -54,-54 -129,-88 -212,-88 -83,0 -158,34 -212,88 -54,54 -88,129 -88,212 0,83 34,158 88,212 54,54 129,88 212,88 83,0 158,-34 212,-88 54,-54 88,-129 88,-212 0,-83 -34,-158 -88,-212 z"
             style="fill:#000000;fill-opacity:1" />
          <path
             id="path4783"
             d="m 3179,2459.0002 c 19,14 36,28 53,42 16,14 33,29 50,44 l 328,-89 c 95,-26 194,12 248,93 28,42 53,81 75,120 22,39 44,80 65,124 43,90 25,193 -46,262 l -244,236 c 5,23 9,45 13,67 4,22 7,44 9,67 l 309,141.9995 c 89,41 141,134 130,231 0,0 -18,128 -20,139 -9,49 -19,95 -30,138 -24,95 -105,163 -204,170 l -339,25 c -10,19 -21,38 -32,58 -12,20 -24,39 -36,57 l 145,307 c 42,90 22,194 -49,262 -36,34 -71,65 -105,93 -34,28 -71,57 -112,86 -79,57 -186,57 -266,0 h 1 l -276,-199 c -21,8 -42,16 -63,24 -18,6 -39,13 -62,20 l -87,328 c -25,96 -107,163 -206,169 -46,3 -92,4 -140,4 -50,-1 -96,-2 -141,-6 -98,-7 -180,-76 -204,-171 l -83,-330 c -20,-7 -41,-14 -61,-21 -22,-9 -43,-17 -61,-25 l -278,196 c -80,57 -187,56 -265,-2 -37,-27 -74,-57 -111,-89 -38,-31 -72,-63 -105,-95 -71,-69 -89,-172 -46,-261 l 149,-307 c -12,-18 -23,-37 -34,-55 -11,-19 -21,-38 -31,-57 l -339,-28 c -98,-9 -178,-78 -201,-173 -12,-48 -22,-94 -29,-140 -8,-44 -14,-91 -19,-140 -9,-98 44,-189 134,-229 l 310,-138.9995 c 2,-20 6,-41 10,-64 4,-22 8,-43 13,-64 l -242,-240 c -70,-70 -87,-173 -44,-262 21,-42 44,-83 68,-125 24,-41 49,-81 75,-119 56,-81 155,-118 250,-91 l 327,93 c 15,-14 32,-28 50,-43 17,-14 34,-28 51,-41 l -31,-339 c -9,-98 44,-189 134,-228 42,-19 85,-36 132,-53 45,-16 90,-30 134,-43 48,-13 96,-11 139,5 44,16 83,46 110,86 l 191,282 c 21,-1 43,-2 66,-1 24,0 46,0 67,1 l 194,-280 c 57,-81 156,-116 250,-88 48,14 93,28 134,44 44,16 87,34 131,53 89,41 142,133 132,231 z"
             style="fill:#0000ff"
             inkscape:connector-curvature="0" />
          <path
             id="path4785"
             d="m 3103,2653.0002 c -21,-17 -41,-33 -59,-47 -47,-35 -71,-90 -65,-148 l 37,-358 c 1,-13 -4,-22 -16,-28 -40,-17 -78,-33 -118,-48 -41,-15 -81,-28 -120,-40 -13,-3 -23,1 -31,11 l -206,297 c -32,47 -87,73 -144,70 -27,-2 -53,-3 -75,-3 -24,0 -49,0 -76,2 -58,3 -111,-24 -143,-72 l -202,-298 c -8,-10 -19,-14 -31,-11 -44,13 -84,25 -121,39 -37,13 -76,29 -118,47 -12,6 -18,15 -17,28 l 33,360 c 5,58 -19,112 -66,146 -21,16 -41,31 -58,45 -18,15 -36,31 -55,50 -43,39 -101,54 -157,38 l -346,-99 c -13,-3 -23,0 -31,11 -25,38 -48,73 -68,108 -21,35 -41,72 -61,112 -5,12 -3,23 6,32 l 256,254 c 41,41 57,98 43,155 -6,25 -11,49 -15,72 -4,21 -7,45 -11,73 -7,57.9995 -42,105.9995 -95,129.9995 l -329,147 c -12,5 -17,16 -16,28 4,42 9,84 17,127 7,42 15,83 25,125 3,12 12,19 25,20 l 359,30 c 58,5 108,39 133,91 11,22 23,44 35,65 12,22 25,43 38,63 32,49 36,108 10,160 l -157,325 c -6,11 -4,23 6,32 32,32 63,60 94,86 29,25 63,51 100,79 10,8 21,8 32,0 l 294,-207 c 47,-34 108,-40 160,-16 26,11 49,20 69,28 24,9 47,16 70,24 56,16 97,60 111,116 l 88,350 c 3,12 11,19 25,20 46,3 88,5 127,6 40,0 82,-1 128,-4 12,-1 21,-8 24,-21 l 92,-347 c 15,-56 57,-100 113,-116 v 1 c 21,-6 45,-14 71,-24 24,-8 47,-17 70,-27 53,-23 112,-16 159,18 l 293,211 c 10,8 21,8 32,0 33,-24 66,-49 100,-78 33,-27 65,-55 95,-84 10,-9 12,-20 6,-31 l -153,-326 c -25,-53 -20,-112 12,-160 15,-22 28,-43 41,-65 12,-20 24,-42 36,-66 26,-51 76,-85 134,-89 l 359,-26 c 13,-1 21,-8 24,-20 12,-46 21,-86 28,-124 6,-32 18,-95 18,-126 1,-13 -4,-22 -16,-28 l -327,-151 c -52,-24 -88,-73 -94,-130.9995 -2,-25 -6,-50 -10,-75 -4,-25 -9,-50 -15,-75 -13,-56 4,-113 45,-153 l 259,-251 c 9,-9 11,-21 5,-32 -18,-38 -37,-75 -59,-112 -22,-38 -44,-74 -66,-108 -8,-11 -18,-14 -31,-11 l -347,95 c -57,15 -114,0 -156,-40 -18,-17 -37,-34 -56,-51 z"
             style="fill:#e6e6e6"
             inkscape:connector-curvature="0" />
          <path
             id="path4787"
             d="m 2300,2900.0002 c 387,0 700,313 700,699.9995 0,387 -313,700 -700,700 -387,0 -700,-313 -700,-700 0,-386.9995 313,-699.9995 700,-699.9995 z"
             style="fill:#0000ff"
             inkscape:connector-curvature="0" />
          <path
             id="path4789"
             d="m 2300,3100.0002 c -276,0 -500,224 -500,499.9995 0,276 224,500 500,500 276,0 500,-224 500,-500 0,-275.9995 -224,-499.9995 -500,-499.9995 z"
             style="fill:#000000"
             inkscape:connector-curvature="0" />
        </g>
        <g
           id="g4801">
          <path
             inkscape:connector-curvature="0"
             style="clip-rule:nonzero;fill:#ffbf00;fill-opacity:1;fill-rule:nonzero;stroke-width:0.04907526;image-rendering:optimizeQuality;shape-rendering:geometricPrecision;text-rendering:geometricPrecision"
             d="m 1124.8584,-909.36313 4.9763,12.6087 c 1.5891,4.11807 0.359,8.67488 -2.9761,11.49539 -1.5273,1.25259 -3.0176,2.44645 -4.6623,3.62507 -1.6926,1.18946 -3.3112,2.26149 -4.9037,3.22693 -3.7418,2.35928 -8.4011,2.008 -11.8047,-0.79223 l -10.5001,-8.78807 c -1.0637,0.19117 -2.1861,0.34538 -3.2608,0.48871 -1.0376,0.0846 -2.0382,0.11049 -3.0865,0.14721 l -8.4576,10.62626 c -2.7416,3.44061 -7.2923,4.67512 -11.414,3.14501 -1.9728,-0.70957 -3.7542,-1.46258 -5.429,-2.18949 -1.8508,-0.83786 -3.5582,-1.70832 -5.2765,-2.62666 -3.8952,-2.08473 -5.9586,-6.29641 -5.1855,-10.64886 l 2.2805,-13.45106 c -0.6959,-0.84851 -1.3439,-1.70787 -2.0028,-2.61508 -0.037,0.0587 -1.5809,-2.30826 -1.6831,-2.53669 l -13.3967,-2.04116 c -4.3786,-0.6666 -7.7473,-3.97804 -8.4749,-8.29168 -0.3717,-2.07955 -0.6149,-4.03733 -0.8254,-5.85151 -0.1845,-1.92076 -0.2732,-3.86326 -0.3729,-5.85361 -0.094,-4.40703 2.5383,-8.32619 6.6302,-9.80879 l 12.8066,-4.76958 c 0.3787,-0.99182 0.8052,-1.99449 1.2796,-3.00805 0.3896,-0.94395 0.8858,-1.8618 1.382,-2.77961 l -4.9764,-12.60871 c -1.589,-4.11806 -0.3699,-8.72273 3.024,-11.50626 1.4795,-1.24172 2.9697,-2.43558 4.6145,-3.61419 0.5678,-0.38054 4.5577,-3.19874 4.8928,-3.27479 3.7527,-2.31143 8.412,-1.96021 11.8156,0.84009 l 10.4999,8.78807 c 1.0638,-0.19117 2.1863,-0.34538 3.2131,-0.47784 1.0854,-0.0955 2.0861,-0.12136 3.1344,-0.15809 l 8.4576,-10.62626 c 2.7415,-3.4406 7.2923,-4.67511 11.414,-3.145 1.9728,0.70957 3.7542,1.46257 5.4289,2.18948 1.8509,0.83787 3.5583,1.70833 5.2765,2.62666 3.8953,2.08473 5.9587,6.29641 5.1855,10.64888 l -2.2804,13.45106 c 0.6959,0.8485 1.3439,1.70786 2.0028,2.61506 0.5893,0.82236 1.1895,1.6926 1.683,2.5367 l 13.3968,2.04116 c 4.3785,0.6666 7.7472,3.97804 8.4749,8.29167 0.3717,2.07957 0.6147,4.03733 0.8253,5.85152 0.1845,1.92076 0.2733,3.86326 0.3729,5.8536 0.094,4.40703 -2.5382,8.3262 -6.6301,9.8088 l -12.8067,4.76958 c -0.3787,0.99182 -0.8052,1.99448 -1.2796,3.00804 -0.3895,0.94395 -0.8858,1.86181 -1.3819,2.77962 z"
             id="path4793"
             inkscape:transform-center-x="-2.1300558"
             inkscape:transform-center-y="14.80538" />
          <path
             inkscape:connector-curvature="0"
             style="clip-rule:nonzero;fill:#e6e6e6;fill-opacity:1;fill-rule:nonzero;stroke-width:0.04907526;image-rendering:optimizeQuality;shape-rendering:geometricPrecision;text-rendering:geometricPrecision"
             d="m 1115.5645,-912.83903 c 0.6658,-1.057 1.2621,-2.19886 1.7995,-3.37771 0.4898,-1.16797 0.9795,-2.33598 1.3996,-3.5888 0.6138,-1.95104 2.3848,-3.46026 4.2448,-4.13417 l 13.9334,-5.12605 c 0.5047,-0.2153 -0.086,-4.81164 -0.1424,-5.50335 -0.046,-0.64387 -0.5666,-5.1554 -0.7644,-5.36211 -0.1391,-0.16973 -13.4077,-2.08901 -14.8193,-2.32207 -0.7243,-0.0872 -1.4333,-0.3288 -2.1055,-0.62913 -0.5742,0.13039 -2.4511,-1.70808 -2.8272,-2.4782 -0.6653,-1.15736 -1.3199,-2.26688 -2.0592,-3.30679 -0.7872,-1.02906 -1.5744,-2.05811 -2.4356,-2.96973 -0.8133,-0.92247 -1.2873,-2.1233 -1.4632,-3.34145 -0.094,-0.63299 0.027,-2.32096 0,-2.46455 0.2809,-1.42253 2.6265,-14.58646 2.5243,-14.81488 -0.1499,-0.21758 -4.2738,-2.20008 -4.8284,-2.42644 -1.627,-0.73776 -3.2321,-1.37981 -4.8265,-1.974 -0.4957,-0.18937 -8.6443,10.46741 -9.6344,11.64834 -1.1641,1.5224 -3.2024,2.74005 -5.1189,2.72226 -1.3205,-0.0523 -2.619,-0.009 -3.8959,0.12964 -1.2768,0.13891 -2.5428,0.32571 -3.7871,0.6082 -2.3145,0.22355 -3.9611,-0.15784 -5.7618,-1.66096 -2.5381,-2.09096 -12.3334,-10.43512 -11.7594,-9.45832 -1.6403,0.97633 -3.0783,1.957 -4.3837,2.85726 -1.2946,0.94814 -2.6629,2.01368 -4.1053,3.19666 -0.3765,0.33708 4.7587,12.75874 5.3239,14.14015 0.7218,1.8491 0.7909,4.14831 -0.2711,5.89915 -0.6659,1.05698 -1.2621,2.19885 -1.7996,3.3777 -0.4898,1.16797 -0.9795,2.33598 -1.3995,3.5888 -0.5769,1.89232 -2.4326,3.47112 -4.2448,4.13417 l -13.9336,5.12608 c -0.5045,0.21527 0.086,4.81161 0.1426,5.50333 0.056,0.69168 0.4076,5.34242 0.9883,5.46221 l 14.6432,2.2111 c 1.9816,0.30499 3.913,1.27556 4.8849,3.11819 0.2521,0.44598 2.0374,3.21107 2.0591,3.3068 1.4679,2.03197 3.5035,3.68341 3.8988,6.31118 0.1261,0.77655 0.1192,1.63362 0,2.46455 -0.2701,1.47037 -2.8072,14.67776 -2.3482,14.92585 1.6117,0.89218 3.1427,1.65168 4.6522,2.31546 1.627,0.73777 3.2321,1.3798 4.8265,1.974 0.4958,0.18936 8.6444,-10.46741 9.6345,-11.64835 1.2119,-1.53327 3.1547,-2.7292 5.1189,-2.72223 1.3203,0.0523 2.6189,0.009 3.8479,-0.11879 1.3248,-0.14978 2.5908,-0.33657 3.835,-0.61906 2.021,-0.40848 4.2068,0.35331 5.7619,1.66096 1.1114,0.90513 11.3177,9.50824 11.5788,9.54963 0,0.20235 4.0443,-2.57892 4.5642,-2.94858 0.52,-0.36968 4.138,-3.05309 4.2164,-3.37285 0.062,-0.16528 -4.9393,-12.66741 -5.4459,-14.01182 -0.7108,-1.80123 -0.7321,-4.11133 0.2823,-5.85127 z"
             id="path4795"
             inkscape:transform-center-x="-2.1329524"
             inkscape:transform-center-y="14.805376" />
          <path
             style="clip-rule:nonzero;fill:#ffbf00;fill-opacity:1;fill-rule:nonzero;stroke-width:0.04907526;image-rendering:optimizeQuality;shape-rendering:geometricPrecision;text-rendering:geometricPrecision"
             d="m 1082.247,-953.63621 c 6.6042,-1.49945 13.1948,-0.17761 18.5277,3.14079 5.296,3.37713 9.3342,8.75084 10.8336,15.35513 1.4994,6.60432 0.1776,13.19495 -3.1408,18.52787 -3.3771,5.2959 -8.7508,9.33408 -15.3551,10.83351 -6.6043,1.49945 -13.195,0.17762 -18.5278,-3.14078 -5.296,-3.37714 -9.3341,-8.75084 -10.8335,-15.35515 -1.4995,-6.6043 -0.1777,-13.19493 3.1408,-18.52784 3.377,-5.2959 8.7507,-9.3341 15.3551,-10.83353 z"
             id="path4797"
             inkscape:connector-curvature="0"
             inkscape:transform-center-x="-2.1300758"
             inkscape:transform-center-y="14.805377" />
          <path
             inkscape:connector-curvature="0"
             style="clip-rule:nonzero;fill:#000000;fill-opacity:1;fill-rule:nonzero;stroke-width:0.04907526;image-rendering:optimizeQuality;shape-rendering:geometricPrecision;text-rendering:geometricPrecision"
             d="m 1095.522,-942.1568 c -3.171,-1.99756 -7.1299,-2.80977 -11.1019,-1.90795 -3.9721,0.90183 -7.1921,3.34389 -9.1897,6.51492 -1.9976,3.17103 -2.8098,7.12977 -1.9079,11.10191 0.9018,3.97216 3.3439,7.19202 6.5148,9.1896 3.171,1.99755 7.1299,2.80977 11.102,1.90796 3.9721,-0.90183 7.1921,-3.3439 9.1897,-6.51492 1.9975,-3.17103 2.8098,-7.12976 1.9078,-11.10192 -0.9018,-3.97216 -3.3439,-7.19201 -6.5148,-9.1896 z"
             id="path4799"
             inkscape:transform-center-x="-2.1300785"
             inkscape:transform-center-y="14.805377" />
        </g>
      </g>
    </g>
  </g>
</svg>
