<?xml version="1.0" encoding="UTF-8" standalone="no"?>
<!-- Created with Inkscape (http://www.inkscape.org/) -->

<svg
   xmlns:dc="http://purl.org/dc/elements/1.1/"
   xmlns:cc="http://creativecommons.org/ns#"
   xmlns:rdf="http://www.w3.org/1999/02/22-rdf-syntax-ns#"
   xmlns:svg="http://www.w3.org/2000/svg"
   xmlns="http://www.w3.org/2000/svg"
   xmlns:sodipodi="http://sodipodi.sourceforge.net/DTD/sodipodi-0.dtd"
   xmlns:inkscape="http://www.inkscape.org/namespaces/inkscape"
   width="101.37543mm"
   height="134.57759mm"
   viewBox="0 0 101.37543 134.57759"
   version="1.1"
   id="svg8"
   sodipodi:docname="broom_proj.svg"
   inkscape:export-filename="C:\Users\christoph.stepper\Documents\_GEOMGI\GIdailyhelpers\projmaker\figures\ico\broom_proj.png"
   inkscape:export-xdpi="96"
   inkscape:export-ydpi="96"
   inkscape:version="0.92.3 (2405546, 2018-03-11)">
  <defs
     id="defs2" />
  <sodipodi:namedview
     id="base"
     pagecolor="#ffffff"
     bordercolor="#666666"
     borderopacity="1.0"
     inkscape:pageopacity="0.0"
     inkscape:pageshadow="2"
     inkscape:zoom="0.49497475"
     inkscape:cx="-370.49872"
     inkscape:cy="306.26211"
     inkscape:document-units="mm"
     inkscape:current-layer="g1128"
     showgrid="false"
     inkscape:window-width="1920"
     inkscape:window-height="1137"
     inkscape:window-x="1912"
     inkscape:window-y="-8"
     inkscape:window-maximized="1"
     inkscape:snap-global="false"
     fit-margin-top="0"
     fit-margin-left="0"
     fit-margin-right="0"
     fit-margin-bottom="0" />
  <metadata
     id="metadata5">
    <rdf:RDF>
      <cc:Work
         rdf:about="">
        <dc:format>image/svg+xml</dc:format>
        <dc:type
           rdf:resource="http://purl.org/dc/dcmitype/StillImage" />
        <dc:title></dc:title>
      </cc:Work>
    </rdf:RDF>
  </metadata>
  <g
     inkscape:label="Layer 1"
     inkscape:groupmode="layer"
     id="layer1"
     transform="translate(-77.980903,-87.640728)">
    <g
       id="g36"
       transform="matrix(0.26458333,0,0,0.26458333,29.654545,66.472935)">
</g>
    <g
       id="g38"
       transform="matrix(0.26458333,0,0,0.26458333,29.654545,66.472935)">
</g>
    <g
       id="g40"
       transform="matrix(0.26458333,0,0,0.26458333,29.654545,66.472935)">
</g>
    <g
       id="g42"
       transform="matrix(0.26458333,0,0,0.26458333,29.654545,66.472935)">
</g>
    <g
       id="g44"
       transform="matrix(0.26458333,0,0,0.26458333,29.654545,66.472935)">
</g>
    <g
       id="g46"
       transform="matrix(0.26458333,0,0,0.26458333,29.654545,66.472935)">
</g>
    <g
       id="g48"
       transform="matrix(0.26458333,0,0,0.26458333,29.654545,66.472935)">
</g>
    <g
       id="g50"
       transform="matrix(0.26458333,0,0,0.26458333,29.654545,66.472935)">
</g>
    <g
       id="g52"
       transform="matrix(0.26458333,0,0,0.26458333,29.654545,66.472935)">
</g>
    <g
       id="g54"
       transform="matrix(0.26458333,0,0,0.26458333,29.654545,66.472935)">
</g>
    <g
       id="g56"
       transform="matrix(0.26458333,0,0,0.26458333,29.654545,66.472935)">
</g>
    <g
       id="g58"
       transform="matrix(0.26458333,0,0,0.26458333,29.654545,66.472935)">
</g>
    <g
       id="g60"
       transform="matrix(0.26458333,0,0,0.26458333,29.654545,66.472935)">
</g>
    <g
       id="g62"
       transform="matrix(0.26458333,0,0,0.26458333,29.654545,66.472935)">
</g>
    <g
       id="g64"
       transform="matrix(0.26458333,0,0,0.26458333,29.654545,66.472935)">
</g>
    <g
       id="g1128">
      <path
         transform="scale(0.26458333)"
         inkscape:connector-curvature="0"
         id="path92"
         d="m 509.89636,837.96429 c 32.58943,-8.54691 61.91195,-35.02913 74.27076,-67.07658 5.59859,-14.51763 7.24188,-24.486 6.6838,-40.54459 -0.54595,-15.70998 -2.41812,-23.9839 -8.21318,-36.29753 -6.1045,-12.97115 -6.12289,-12.94802 -6.16333,7.74777 -0.0397,20.32338 -1.39029,29.21722 -6.61813,43.58111 -3.82798,10.51765 -15.89884,29.42244 -17.66119,27.66008 -0.26023,-0.26024 0.26416,-3.60831 1.16532,-7.44016 2.19427,-9.33025 1.47067,-29.03168 -1.47337,-40.11602 -5.31425,-20.0081 -13.2297,-35.45576 -34.25737,-66.85608 -23.22775,-34.68565 -28.38561,-43.7337 -34.83828,-61.11423 -5.51013,-14.84175 -7.1152,-24.51021 -6.57426,-39.60137 l 0.45998,-12.83232 -3.73579,2.9588 c -6.99977,5.54391 -20.97459,21.06752 -26.53267,29.47318 -15.16558,22.93539 -22.56805,45.2043 -23.64193,71.12218 -0.89795,21.67181 2.06659,39.91129 9.66925,59.49058 1.61815,4.16724 2.6082,7.5768 2.2001,7.5768 -1.38486,0 -12.72474,-12.60046 -16.00436,-17.78346 -4.43572,-7.01011 -7.9377,-15.92468 -9.42347,-23.98824 -0.68057,-3.6936 -1.49975,-6.70708 -1.8204,-6.69665 -0.32066,0.0104 -2.78303,3.07877 -5.47192,6.81853 -6.84435,9.51921 -14.25312,25.19353 -17.53801,37.10414 -2.50252,9.07384 -2.78649,11.74582 -2.79126,26.26396 -0.006,18.65428 1.64457,26.32543 8.65756,40.23358 6.26711,12.42891 11.49277,19.55054 22.01809,30.00667 9.95936,9.89391 18.52748,16.18171 30.90802,22.68217 6.62491,3.47844 6.81612,3.67105 3.03046,3.05254 -12.66663,-2.06949 -40.66034,-14.3123 -55.8779,-24.43771 -13.1115,-8.72409 -19.3082,-14.3351 -30.71122,-27.80845 -39.27222,-46.40251 -53.55688,-72.27583 -62.06663,-112.41917 -2.58903,-12.21333 -2.78579,-14.82796 -2.8127,-37.37565 -0.0249,-20.88887 0.27956,-25.8558 2.20043,-35.89393 6.73257,-35.18312 20.95355,-68.24547 42.13142,-97.95128 l 6.12134,-8.58629 0.67402,11.61675 c 0.80265,13.83356 3.94447,25.58835 10.39477,38.89087 3.86384,7.96846 14.30349,23.45957 15.19836,22.55245 0.17856,-0.181 -0.35425,-5.32935 -1.184,-11.44077 -4.64869,-34.23905 3.89712,-74.35743 22.891,-107.46207 25.08829,-43.72665 70.55355,-80.51528 130.82285,-105.85651 17.92378,-7.53635 17.78577,-7.5121 13.36587,-2.34845 -13.23623,15.46356 -20.484,44.08674 -17.87384,70.58805 2.88704,29.31238 12.29455,52.09653 42.38492,102.65257 24.60694,41.34308 32.98049,57.85622 39.18583,77.27667 3.49232,10.92967 6.22755,23.37105 6.3755,28.9993 0.26781,10.18839 0.97827,9.63926 10.18322,-7.87073 4.79466,-9.12059 9.95766,-19.53758 11.47333,-23.14887 10.43764,-24.86912 15.21008,-50.19645 12.74698,-67.64826 -0.58561,-4.14929 -0.89993,-7.709 -0.69848,-7.91045 0.83927,-0.83927 12.03204,16.24401 17.21535,26.27539 17.11051,33.11434 22.97884,76.51683 17.62643,130.36581 -4.20359,42.2909 -15.66793,78.25332 -33.41448,104.81769 -7.46136,11.16871 -26.02563,30.38673 -37.25335,38.56524 -16.25878,11.84325 -40.25093,24.25057 -53.36297,27.59617 -7.73411,1.97338 -31.12966,4.50836 -41.08629,4.45181 l -8.08122,-0.0459 7.12704,-1.86915 z"
         style="opacity:1;fill:none;fill-opacity:1;stroke:none;stroke-width:4.04061031;stroke-miterlimit:4;stroke-dasharray:none;stroke-opacity:1" />
      <path
         transform="scale(0.26458333)"
         inkscape:connector-curvature="0"
         id="path94"
         d="m 509.89636,837.96429 c 32.58943,-8.54691 61.91195,-35.02913 74.27076,-67.07658 5.59859,-14.51763 7.24188,-24.486 6.6838,-40.54459 -0.54595,-15.70998 -2.41812,-23.9839 -8.21318,-36.29753 -6.1045,-12.97115 -6.12289,-12.94802 -6.16333,7.74777 -0.0397,20.32338 -1.39029,29.21722 -6.61813,43.58111 -3.82798,10.51765 -15.89884,29.42244 -17.66119,27.66008 -0.26023,-0.26024 0.26416,-3.60831 1.16532,-7.44016 2.19427,-9.33025 1.47067,-29.03168 -1.47337,-40.11602 -5.31425,-20.0081 -13.2297,-35.45576 -34.25737,-66.85608 -23.22775,-34.68565 -28.38561,-43.7337 -34.83828,-61.11423 -5.51013,-14.84175 -7.1152,-24.51021 -6.57426,-39.60137 l 0.45998,-12.83232 -3.73579,2.9588 c -6.99977,5.54391 -20.97459,21.06752 -26.53267,29.47318 -15.16558,22.93539 -22.56805,45.2043 -23.64193,71.12218 -0.89795,21.67181 2.06659,39.91129 9.66925,59.49058 1.61815,4.16724 2.6082,7.5768 2.2001,7.5768 -1.38486,0 -12.72474,-12.60046 -16.00436,-17.78346 -4.43572,-7.01011 -7.9377,-15.92468 -9.42347,-23.98824 -0.68057,-3.6936 -1.49975,-6.70708 -1.8204,-6.69665 -0.32066,0.0104 -2.78303,3.07877 -5.47192,6.81853 -6.84435,9.51921 -14.25312,25.19353 -17.53801,37.10414 -2.50252,9.07384 -2.78649,11.74582 -2.79126,26.26396 -0.006,18.65428 1.64457,26.32543 8.65756,40.23358 6.26711,12.42891 11.49277,19.55054 22.01809,30.00667 9.95936,9.89391 18.52748,16.18171 30.90802,22.68217 6.62491,3.47844 6.81612,3.67105 3.03046,3.05254 -12.66663,-2.06949 -40.66034,-14.3123 -55.8779,-24.43771 -13.1115,-8.72409 -19.3082,-14.3351 -30.71122,-27.80845 -39.27222,-46.40251 -53.55688,-72.27583 -62.06663,-112.41917 -2.58903,-12.21333 -2.78579,-14.82796 -2.8127,-37.37565 -0.0249,-20.88887 0.27956,-25.8558 2.20043,-35.89393 6.73257,-35.18312 20.95355,-68.24547 42.13142,-97.95128 l 6.12134,-8.58629 0.67402,11.61675 c 0.80265,13.83356 3.94447,25.58835 10.39477,38.89087 3.86384,7.96846 14.30349,23.45957 15.19836,22.55245 0.17856,-0.181 -0.35425,-5.32935 -1.184,-11.44077 -4.64869,-34.23905 3.89712,-74.35743 22.891,-107.46207 25.08829,-43.72665 70.55355,-80.51528 130.82285,-105.85651 17.92378,-7.53635 17.78577,-7.5121 13.36587,-2.34845 -13.23623,15.46356 -20.484,44.08674 -17.87384,70.58805 2.88704,29.31238 12.29455,52.09653 42.38492,102.65257 24.60694,41.34308 32.98049,57.85622 39.18583,77.27667 3.49232,10.92967 6.22755,23.37105 6.3755,28.9993 0.26781,10.18839 0.97827,9.63926 10.18322,-7.87073 4.79466,-9.12059 9.95766,-19.53758 11.47333,-23.14887 10.43764,-24.86912 15.21008,-50.19645 12.74698,-67.64826 -0.58561,-4.14929 -0.89993,-7.709 -0.69848,-7.91045 0.83927,-0.83927 12.03204,16.24401 17.21535,26.27539 17.11051,33.11434 22.97884,76.51683 17.62643,130.36581 -4.20359,42.2909 -15.66793,78.25332 -33.41448,104.81769 -7.46136,11.16871 -26.02563,30.38673 -37.25335,38.56524 -16.25878,11.84325 -40.25093,24.25057 -53.36297,27.59617 -7.73411,1.97338 -31.12966,4.50836 -41.08629,4.45181 l -8.08122,-0.0459 7.12704,-1.86915 z"
         style="opacity:1;fill:none;fill-opacity:1;stroke:none;stroke-width:4.04061031;stroke-miterlimit:4;stroke-dasharray:none;stroke-opacity:1" />
      <g
         id="g1283"
         transform="matrix(0.12722609,0.10675535,-0.10675535,0.12722609,137.39556,94.296551)">
        <g
           id="g1298">
          <g
             id="g1313"
             transform="matrix(0.41172841,-1.1312145,1.1312145,0.41172841,-582.3961,1486.7958)">
            <path
               id="path1236"
               d="m 1135.8822,370.42114 -42.3906,-42.39062 241.6562,-241.656251 c 11.7031,-11.707031 30.6836,-11.707031 42.3906,0 11.7032,11.707031 11.7032,30.687501 0,42.390621 z m 0,0"
               inkscape:connector-curvature="0"
               style="fill:#6a829a" />
            <path
               id="path1238"
               d="m 1143.0814,278.44067 -49.5898,49.58985 42.3906,42.39062 42.164,-42.16406 c -17.957,-17.76953 -28.7461,-36.20703 -34.9648,-49.81641 z m 0,0"
               inkscape:connector-curvature="0"
               style="fill:#516980" />
            <path
               id="path1240"
               d="M 1182.7884,481.25317 982.65952,281.12427 c 0,0 -30.59765,26.73047 -72.98828,39.39453 -18.21094,5.44141 -26.05078,26.93359 -15.80859,42.94141 18.64453,29.14453 49.39453,72.00781 91.98828,114.60156 42.59377,42.59375 85.45707,73.34375 114.60157,91.98828 16.0078,10.24219 37.5,2.40234 42.9414,-15.80859 12.6641,-42.39063 39.3945,-72.98829 39.3945,-72.98829 z m 0,0"
               inkscape:connector-curvature="0"
               style="fill:#ffd4a3" />
            <path
               id="path1242"
               d="m 1138.8666,426.75317 -101.7071,-101.70703 20.6797,-20.67578 c 10.5313,-10.53515 27.6055,-10.53515 38.1406,0 l 63.5625,63.5625 c 10.5352,10.53516 10.5352,27.60938 0,38.14063 z m 0,0"
               inkscape:connector-curvature="0"
               style="fill:#889cb0" />
            <path
               id="path1244"
               d="m 1068.7923,395.12036 c -34.3007,-34.30078 -66.1797,-71.02734 -95.3945,-109.9375 -7.34375,-9.78125 -5.37109,-23.66797 4.41407,-31.01172 9.78125,-7.34765 23.66793,-5.3789 31.01173,4.41407 55.918,74.47265 122.0312,140.58593 196.5078,196.5039 9.7852,7.34766 11.7578,21.23047 4.4141,31.01172 -7.3477,9.78516 -21.2305,11.76172 -31.0157,4.41406 -38.9101,-29.21484 -75.6367,-61.09375 -109.9375,-95.39453 z m 0,0"
               inkscape:connector-curvature="0"
               style="fill:#a7b6c5" />
            <g
               id="g1256"
               style="fill:#ffbe73"
               transform="translate(881.80015,70.11255)">
              <path
                 id="path1246"
                 d="m 167.42578,343.66406 c -6.55859,-6.55469 -17.19141,-6.55469 -23.75,0 l -51.785155,51.78906 c 3.941406,4.16016 7.992187,8.32813 12.160155,12.4961 3.85547,3.85547 7.71094,7.61328 11.5625,11.27344 l 51.80859,-51.8086 c 6.5586,-6.55859 6.5586,-17.1914 0.004,-23.75 z m 0,0"
                 inkscape:connector-curvature="0" />
              <path
                 id="path1248"
                 d="m 134.58203,305.03906 c -5.63672,-7.23437 -16.07812,-8.53125 -23.3164,-2.89453 -27.54688,21.45703 -48.60938,36.08984 -61.347661,44.53906 6.539062,8.35547 13.609375,17 21.214843,25.8086 13.476563,-9.03125 34.062498,-23.5 60.554688,-44.13672 7.23828,-5.63672 8.53516,-16.07813 2.89453,-23.31641 z m 0,0"
                 inkscape:connector-curvature="0" />
              <path
                 id="path1250"
                 d="m 98.886719,263.14062 c -5.214844,-7.54687 -15.5625,-9.43359 -23.109375,-4.22265 -11.167969,7.71094 -63.714844,34.42969 -63.714844,34.42969 5.199219,8.1289 11.34375,17.32421 18.421875,27.28515 30.972656,-11.79297 59.867187,-31.39843 64.1875,-34.38672 7.542965,-5.21875 9.429685,-15.55859 4.214844,-23.10547 z m 0,0"
                 inkscape:connector-curvature="0" />
              <path
                 id="path1252"
                 d="m 206.05078,376.50781 c -7.23828,-5.64062 -17.67969,-4.34375 -23.31641,2.89453 -20.67578,26.54297 -35.16406,47.16016 -44.1914,60.63282 8.79297,7.62109 17.42578,14.70703 25.77344,21.26171 8.4375,-12.72265 23.09765,-33.83593 44.6289,-61.47656 5.63672,-7.23828 4.33985,-17.67578 -2.89453,-23.3125 z m 0,0"
                 inkscape:connector-curvature="0" />
              <path
                 id="path1254"
                 d="m 252.17187,435.3125 c 5.21485,-7.54688 3.32422,-17.89453 -4.22265,-23.10938 -7.54688,-5.21484 -17.88672,-3.32812 -23.10547,4.21485 -2.99609,4.32812 -22.68359,33.34375 -34.46875,64.39453 10.33984,7.37109 19.88281,13.75391 28.27734,19.125 0,0 25.77735,-53.41016 33.51953,-64.625 z m 0,0"
                 inkscape:connector-curvature="0" />
            </g>
            <path
               id="path1258"
               d="m 1377.5384,86.374269 c -11.707,-11.707031 -30.6875,-11.707031 -42.3906,0 l -29.8008,29.800781 42.3906,42.39062 29.8008,-29.80078 c 11.7032,-11.70312 11.7032,-30.68359 0,-42.390621 z m 0,0"
               inkscape:connector-curvature="0"
               style="fill:#3e4f61" />
            <path
               id="path1260"
               d="m 1150.5814,556.38989 c 7.2773,-24.35937 19.4141,-44.71875 28,-57.16406 5.3984,2.76172 23.8711,9.33203 37.1562,-8.62109 4.7149,-6.36719 15.9649,-26.14453 -5.9062,-41.51172 -16.0664,-11.29297 -31.0313,-24.04688 -45.9688,-36.73438 0,0 25.1016,-25.60937 0.9844,-49.72656 l -5.2851,-5.28515 223.2773,-223.27735 c 14.6133,-14.61328 14.6133,-38.386718 0,-52.999999 -14.6094,-14.609375 -38.3828,-14.609375 -52.9961,0 L 1125.2142,285.69849 c -2.9297,2.92969 -2.9297,7.67969 0,10.60937 2.9297,2.92969 7.6797,2.92969 10.6094,0 l 169.5234,-169.52734 31.7852,31.78515 -188.1758,188.17579 -47.6758,-47.67578 c -22.7265,-22.73047 -49.7265,0.98437 -49.7265,0.98437 -12.6875,-14.9375 -24.793,-30.375 -36.7305,-45.96484 -15.41017,-20.13282 -35.19923,-10.69532 -41.51564,-5.91407 -18.25781,13.82422 -11.38281,31.75782 -8.62109,37.15625 -12.44532,8.58985 -32.80469,20.72657 -57.16407,28.00391 -10.90234,3.25781 -19.4375,11.26563 -23.41796,21.97266 -4.00391,10.78515 -2.75,22.51953 3.4414,32.19922 18.52344,28.94921 49.69531,72.55078 93.00391,115.85937 30.79295,30.79297 61.73045,55.44531 87.44925,73.78516 0.031,0.0195 0.059,0.043 0.094,0.0664 10.414,7.42188 19.9765,13.81641 28.3164,19.15235 9.6797,6.1914 21.414,7.44531 32.1953,3.4375 10.7109,-3.97657 18.7187,-12.50782 21.9765,-23.41407 z m 165.3711,-440.21484 24.4961,-24.496094 c 8.7656,-8.765625 23.0234,-8.765625 31.7851,0 8.7657,8.761714 8.7657,23.019534 0,31.785154 l -24.4961,24.4961 z m -225.2774,193.49609 63.5665,63.56641 c 14.2617,14.26172 -1.7618,29.29687 -1.7618,29.29687 -32.3398,-28.33593 -62.7656,-58.76171 -91.1015,-91.09765 0,-0.004 15.1445,-15.91797 29.2968,-1.76563 z m -108.35933,-49.5039 c 10.92188,-8.95313 20.08203,2.35156 20.50783,2.91797 56.3437,75.04296 122.9609,141.65625 198.0039,198.0039 3.1289,2.34375 10.6289,9.67578 2.918,20.50781 -7.1407,9.41016 -17.3829,5.26954 -20.5118,2.92188 -38.4453,-28.86719 -75.164,-60.72656 -109.1367,-94.70313 -33.9765,-33.97265 -65.8398,-70.6914 -94.7031,-109.13671 -2.34766,-3.12891 -7.75781,-11.75782 2.92187,-20.51172 z m -77.63672,106.17968 c 15.03125,-7.72265 48.19922,-24.95703 57.16016,-31.14453 4.13672,-2.85547 9.82422,-1.8125 12.67578,2.3125 2.85547,4.13282 1.82031,9.82032 -2.30859,12.67578 -3.00781,2.07813 -28.77344,19.66016 -57.19141,31.39844 -3.74609,-5.36719 -7.1914,-10.46484 -10.33594,-15.24219 z m 104.19925,26.20313 c -23.22268,18.08984 -41.82815,31.35937 -54.59378,40.08594 -4.04297,-4.78125 -7.92968,-9.5 -11.64453,-14.14063 13.05469,-8.8789 31.76563,-22.19531 55.03907,-40.32031 3.96094,-3.08984 9.69534,-2.37891 12.78904,1.58594 3.086,3.96484 2.375,9.70312 -1.5898,12.78906 z m -24.69143,73.125 46.59373,-46.59375 c 3.6211,-3.62109 9.5156,-3.62109 13.1406,0 3.6211,3.625 3.6211,9.51562 0,13.14062 l -46.60543,46.60547 c -2.05468,-1.99609 -10.83984,-10.79297 -13.1289,-13.15234 z m 86.26563,-11.55078 c 3.0859,-3.96485 8.8242,-4.67578 12.7891,-1.58985 3.9648,3.08204 4.6757,8.82422 1.5859,12.78907 -18.1797,23.34375 -31.5156,42.08203 -40.3984,55.15234 -4.6368,-3.73047 -9.3477,-7.61719 -14.1211,-11.66797 8.7304,-12.78125 22.0195,-31.41406 40.1445,-54.68359 z m 52.9297,111.62109 c -6.3281,2.35156 -13.2149,1.61719 -18.8867,-2.01172 -6.9375,-4.4375 -14.7344,-9.62109 -23.1719,-15.53515 11.7383,-28.4961 29.3984,-54.38282 31.4883,-57.40235 2.8554,-4.1289 8.5429,-5.16406 12.6757,-2.30859 4.1329,2.85156 5.168,8.53906 2.3125,12.67578 -3.3281,4.82031 -9.5898,16.375 -19.1406,35.32031 -1.8633,3.69922 -0.375,8.21094 3.3203,10.07422 3.6993,1.86719 8.211,0.37891 10.0743,-3.32031 11.3515,-22.51172 16.1015,-30.66797 18.0937,-33.55078 7.5508,-10.9375 4.8008,-25.98438 -6.1328,-33.53906 -10.9336,-7.55469 -25.9766,-4.8125 -33.5352,6.11718 -3.4336,4.95703 -19.7187,29.08985 -31.6562,56.96485 -4.0899,-3.00391 -8.2852,-6.15235 -12.5781,-9.45313 8.7343,-12.88672 22.0546,-31.66015 40.4179,-55.23047 8.1719,-10.48828 6.2852,-25.66015 -4.2031,-33.84375 -10.4883,-8.16797 -25.668,-6.28515 -33.8398,4.20313 -17.6836,22.69922 -30.8399,41.07812 -39.711,54 -3.5547,-3.15625 -7.1289,-6.40625 -10.7187,-9.73828 l 46.3359,-46.33594 c 9.4727,-9.47266 9.4727,-24.88281 0,-34.35547 -9.4687,-9.46875 -24.8789,-9.47266 -34.3516,0 l -46.30464,46.30078 c -3.32031,-3.58984 -6.55859,-7.16797 -9.70703,-10.72656 12.90625,-8.86328 31.26563,-22.00391 53.93357,-39.66406 10.4883,-8.17188 12.375,-23.35157 4.2031,-33.83985 -8.1679,-10.49218 -23.35542,-12.375 -33.83979,-4.20312 -23.48438,18.29297 -42.22266,31.58984 -55.09766,40.32031 -3.28516,-4.28906 -6.41797,-8.48047 -9.40625,-12.5625 27.80469,-11.93359 51.84375,-28.15625 56.78125,-31.57422 10.92969,-7.55859 13.67187,-22.60156 6.11719,-33.53515 -7.55469,-10.9375 -22.60157,-13.6875 -33.53907,-6.13282 -7.64453,5.27735 -38.35156,21.34375 -55.83984,30.33203 -1.05859,-4.1289 -0.84766,-8.51171 0.69141,-12.66015 2.32421,-6.25 7.29687,-10.92578 13.64843,-12.82422 26.33594,-7.86719 48.24219,-20.94531 61.5586,-30.14844 27.68753,36.15235 57.96873,70.72266 90.11323,102.86719 32.1485,32.14453 66.7188,62.42578 102.8672,90.11719 -9.2031,13.3125 -22.2812,35.22265 -30.1484,61.55468 -1.8945,6.35157 -6.5703,11.32422 -12.8242,13.64844 z m 0,0"
               inkscape:connector-curvature="0" />
          </g>
        </g>
      </g>
    </g>
  </g>
</svg>
