<?xml version="1.0" encoding="UTF-8" standalone="no"?>
<!-- Created with Inkscape (http://www.inkscape.org/) -->

<svg
   xmlns:dc="http://purl.org/dc/elements/1.1/"
   xmlns:cc="http://creativecommons.org/ns#"
   xmlns:rdf="http://www.w3.org/1999/02/22-rdf-syntax-ns#"
   xmlns:svg="http://www.w3.org/2000/svg"
   xmlns="http://www.w3.org/2000/svg"
   xmlns:sodipodi="http://sodipodi.sourceforge.net/DTD/sodipodi-0.dtd"
   xmlns:inkscape="http://www.inkscape.org/namespaces/inkscape"
   width="43.259064mm"
   height="39.147568mm"
   viewBox="0 0 43.259065 39.147567"
   version="1.1"
   id="svg8"
   inkscape:version="0.92.3 (2405546, 2018-03-11)"
   sodipodi:docname="create_proj.svg"
   inkscape:export-filename="C:\Users\christoph.stepper\Documents\_GEOMGI\GIdailyhelpers\projmaker\figures\ico\create_proj.png"
   inkscape:export-xdpi="96"
   inkscape:export-ydpi="96">
  <defs
     id="defs2" />
  <sodipodi:namedview
     id="base"
     pagecolor="#ffffff"
     bordercolor="#666666"
     borderopacity="1.0"
     inkscape:pageopacity="0.0"
     inkscape:pageshadow="2"
     inkscape:zoom="4.0526449"
     inkscape:cx="8.0613007"
     inkscape:cy="64.150648"
     inkscape:document-units="mm"
     inkscape:current-layer="g1056"
     showgrid="false"
     inkscape:window-width="1920"
     inkscape:window-height="1017"
     inkscape:window-x="1912"
     inkscape:window-y="-8"
     inkscape:window-maximized="1"
     inkscape:snap-global="false"
     fit-margin-top="0"
     fit-margin-left="0"
     fit-margin-right="0"
     fit-margin-bottom="0" />
  <metadata
     id="metadata5">
    <rdf:RDF>
      <cc:Work
         rdf:about="">
        <dc:format>image/svg+xml</dc:format>
        <dc:type
           rdf:resource="http://purl.org/dc/dcmitype/StillImage" />
        <dc:title />
      </cc:Work>
    </rdf:RDF>
  </metadata>
  <g
     inkscape:label="Layer 1"
     inkscape:groupmode="layer"
     id="layer1"
     transform="translate(-18.185699,-162.39254)">
    <g
       id="g36"
       transform="matrix(0.26458333,0,0,0.26458333,29.654545,66.472935)" />
    <g
       id="g38"
       transform="matrix(0.26458333,0,0,0.26458333,29.654545,66.472935)" />
    <g
       id="g40"
       transform="matrix(0.26458333,0,0,0.26458333,29.654545,66.472935)" />
    <g
       id="g42"
       transform="matrix(0.26458333,0,0,0.26458333,29.654545,66.472935)" />
    <g
       id="g44"
       transform="matrix(0.26458333,0,0,0.26458333,29.654545,66.472935)" />
    <g
       id="g46"
       transform="matrix(0.26458333,0,0,0.26458333,29.654545,66.472935)" />
    <g
       id="g48"
       transform="matrix(0.26458333,0,0,0.26458333,29.654545,66.472935)" />
    <g
       id="g50"
       transform="matrix(0.26458333,0,0,0.26458333,29.654545,66.472935)" />
    <g
       id="g52"
       transform="matrix(0.26458333,0,0,0.26458333,29.654545,66.472935)" />
    <g
       id="g54"
       transform="matrix(0.26458333,0,0,0.26458333,29.654545,66.472935)" />
    <g
       id="g56"
       transform="matrix(0.26458333,0,0,0.26458333,29.654545,66.472935)" />
    <g
       id="g58"
       transform="matrix(0.26458333,0,0,0.26458333,29.654545,66.472935)" />
    <g
       id="g60"
       transform="matrix(0.26458333,0,0,0.26458333,29.654545,66.472935)" />
    <g
       id="g62"
       transform="matrix(0.26458333,0,0,0.26458333,29.654545,66.472935)" />
    <g
       id="g64"
       transform="matrix(0.26458333,0,0,0.26458333,29.654545,66.472935)" />
    <g
       id="g1128">
      <path
         transform="scale(0.26458333)"
         inkscape:connector-curvature="0"
         id="path92"
         d="m 509.89636,837.96429 c 32.58943,-8.54691 61.91195,-35.02913 74.27076,-67.07658 5.59859,-14.51763 7.24188,-24.486 6.6838,-40.54459 -0.54595,-15.70998 -2.41812,-23.9839 -8.21318,-36.29753 -6.1045,-12.97115 -6.12289,-12.94802 -6.16333,7.74777 -0.0397,20.32338 -1.39029,29.21722 -6.61813,43.58111 -3.82798,10.51765 -15.89884,29.42244 -17.66119,27.66008 -0.26023,-0.26024 0.26416,-3.60831 1.16532,-7.44016 2.19427,-9.33025 1.47067,-29.03168 -1.47337,-40.11602 -5.31425,-20.0081 -13.2297,-35.45576 -34.25737,-66.85608 -23.22775,-34.68565 -28.38561,-43.7337 -34.83828,-61.11423 -5.51013,-14.84175 -7.1152,-24.51021 -6.57426,-39.60137 l 0.45998,-12.83232 -3.73579,2.9588 c -6.99977,5.54391 -20.97459,21.06752 -26.53267,29.47318 -15.16558,22.93539 -22.56805,45.2043 -23.64193,71.12218 -0.89795,21.67181 2.06659,39.91129 9.66925,59.49058 1.61815,4.16724 2.6082,7.5768 2.2001,7.5768 -1.38486,0 -12.72474,-12.60046 -16.00436,-17.78346 -4.43572,-7.01011 -7.9377,-15.92468 -9.42347,-23.98824 -0.68057,-3.6936 -1.49975,-6.70708 -1.8204,-6.69665 -0.32066,0.0104 -2.78303,3.07877 -5.47192,6.81853 -6.84435,9.51921 -14.25312,25.19353 -17.53801,37.10414 -2.50252,9.07384 -2.78649,11.74582 -2.79126,26.26396 -0.006,18.65428 1.64457,26.32543 8.65756,40.23358 6.26711,12.42891 11.49277,19.55054 22.01809,30.00667 9.95936,9.89391 18.52748,16.18171 30.90802,22.68217 6.62491,3.47844 6.81612,3.67105 3.03046,3.05254 -12.66663,-2.06949 -40.66034,-14.3123 -55.8779,-24.43771 -13.1115,-8.72409 -19.3082,-14.3351 -30.71122,-27.80845 -39.27222,-46.40251 -53.55688,-72.27583 -62.06663,-112.41917 -2.58903,-12.21333 -2.78579,-14.82796 -2.8127,-37.37565 -0.0249,-20.88887 0.27956,-25.8558 2.20043,-35.89393 6.73257,-35.18312 20.95355,-68.24547 42.13142,-97.95128 l 6.12134,-8.58629 0.67402,11.61675 c 0.80265,13.83356 3.94447,25.58835 10.39477,38.89087 3.86384,7.96846 14.30349,23.45957 15.19836,22.55245 0.17856,-0.181 -0.35425,-5.32935 -1.184,-11.44077 -4.64869,-34.23905 3.89712,-74.35743 22.891,-107.46207 25.08829,-43.72665 70.55355,-80.51528 130.82285,-105.85651 17.92378,-7.53635 17.78577,-7.5121 13.36587,-2.34845 -13.23623,15.46356 -20.484,44.08674 -17.87384,70.58805 2.88704,29.31238 12.29455,52.09653 42.38492,102.65257 24.60694,41.34308 32.98049,57.85622 39.18583,77.27667 3.49232,10.92967 6.22755,23.37105 6.3755,28.9993 0.26781,10.18839 0.97827,9.63926 10.18322,-7.87073 4.79466,-9.12059 9.95766,-19.53758 11.47333,-23.14887 10.43764,-24.86912 15.21008,-50.19645 12.74698,-67.64826 -0.58561,-4.14929 -0.89993,-7.709 -0.69848,-7.91045 0.83927,-0.83927 12.03204,16.24401 17.21535,26.27539 17.11051,33.11434 22.97884,76.51683 17.62643,130.36581 -4.20359,42.2909 -15.66793,78.25332 -33.41448,104.81769 -7.46136,11.16871 -26.02563,30.38673 -37.25335,38.56524 -16.25878,11.84325 -40.25093,24.25057 -53.36297,27.59617 -7.73411,1.97338 -31.12966,4.50836 -41.08629,4.45181 l -8.08122,-0.0459 7.12704,-1.86915 z"
         style="opacity:1;fill:none;fill-opacity:1;stroke:none;stroke-width:4.04061031;stroke-miterlimit:4;stroke-dasharray:none;stroke-opacity:1" />
      <path
         transform="scale(0.26458333)"
         inkscape:connector-curvature="0"
         id="path94"
         d="m 509.89636,837.96429 c 32.58943,-8.54691 61.91195,-35.02913 74.27076,-67.07658 5.59859,-14.51763 7.24188,-24.486 6.6838,-40.54459 -0.54595,-15.70998 -2.41812,-23.9839 -8.21318,-36.29753 -6.1045,-12.97115 -6.12289,-12.94802 -6.16333,7.74777 -0.0397,20.32338 -1.39029,29.21722 -6.61813,43.58111 -3.82798,10.51765 -15.89884,29.42244 -17.66119,27.66008 -0.26023,-0.26024 0.26416,-3.60831 1.16532,-7.44016 2.19427,-9.33025 1.47067,-29.03168 -1.47337,-40.11602 -5.31425,-20.0081 -13.2297,-35.45576 -34.25737,-66.85608 -23.22775,-34.68565 -28.38561,-43.7337 -34.83828,-61.11423 -5.51013,-14.84175 -7.1152,-24.51021 -6.57426,-39.60137 l 0.45998,-12.83232 -3.73579,2.9588 c -6.99977,5.54391 -20.97459,21.06752 -26.53267,29.47318 -15.16558,22.93539 -22.56805,45.2043 -23.64193,71.12218 -0.89795,21.67181 2.06659,39.91129 9.66925,59.49058 1.61815,4.16724 2.6082,7.5768 2.2001,7.5768 -1.38486,0 -12.72474,-12.60046 -16.00436,-17.78346 -4.43572,-7.01011 -7.9377,-15.92468 -9.42347,-23.98824 -0.68057,-3.6936 -1.49975,-6.70708 -1.8204,-6.69665 -0.32066,0.0104 -2.78303,3.07877 -5.47192,6.81853 -6.84435,9.51921 -14.25312,25.19353 -17.53801,37.10414 -2.50252,9.07384 -2.78649,11.74582 -2.79126,26.26396 -0.006,18.65428 1.64457,26.32543 8.65756,40.23358 6.26711,12.42891 11.49277,19.55054 22.01809,30.00667 9.95936,9.89391 18.52748,16.18171 30.90802,22.68217 6.62491,3.47844 6.81612,3.67105 3.03046,3.05254 -12.66663,-2.06949 -40.66034,-14.3123 -55.8779,-24.43771 -13.1115,-8.72409 -19.3082,-14.3351 -30.71122,-27.80845 -39.27222,-46.40251 -53.55688,-72.27583 -62.06663,-112.41917 -2.58903,-12.21333 -2.78579,-14.82796 -2.8127,-37.37565 -0.0249,-20.88887 0.27956,-25.8558 2.20043,-35.89393 6.73257,-35.18312 20.95355,-68.24547 42.13142,-97.95128 l 6.12134,-8.58629 0.67402,11.61675 c 0.80265,13.83356 3.94447,25.58835 10.39477,38.89087 3.86384,7.96846 14.30349,23.45957 15.19836,22.55245 0.17856,-0.181 -0.35425,-5.32935 -1.184,-11.44077 -4.64869,-34.23905 3.89712,-74.35743 22.891,-107.46207 25.08829,-43.72665 70.55355,-80.51528 130.82285,-105.85651 17.92378,-7.53635 17.78577,-7.5121 13.36587,-2.34845 -13.23623,15.46356 -20.484,44.08674 -17.87384,70.58805 2.88704,29.31238 12.29455,52.09653 42.38492,102.65257 24.60694,41.34308 32.98049,57.85622 39.18583,77.27667 3.49232,10.92967 6.22755,23.37105 6.3755,28.9993 0.26781,10.18839 0.97827,9.63926 10.18322,-7.87073 4.79466,-9.12059 9.95766,-19.53758 11.47333,-23.14887 10.43764,-24.86912 15.21008,-50.19645 12.74698,-67.64826 -0.58561,-4.14929 -0.89993,-7.709 -0.69848,-7.91045 0.83927,-0.83927 12.03204,16.24401 17.21535,26.27539 17.11051,33.11434 22.97884,76.51683 17.62643,130.36581 -4.20359,42.2909 -15.66793,78.25332 -33.41448,104.81769 -7.46136,11.16871 -26.02563,30.38673 -37.25335,38.56524 -16.25878,11.84325 -40.25093,24.25057 -53.36297,27.59617 -7.73411,1.97338 -31.12966,4.50836 -41.08629,4.45181 l -8.08122,-0.0459 7.12704,-1.86915 z"
         style="opacity:1;fill:none;fill-opacity:1;stroke:none;stroke-width:4.04061031;stroke-miterlimit:4;stroke-dasharray:none;stroke-opacity:1" />
      <g
         transform="matrix(0.08449012,0,0,0.08449012,18.185699,160.33681)"
         id="g1056">
        <g
           id="g909"
           style="fill:#4d4d4d">
          <g
             id="g907"
             style="fill:#4d4d4d">
            <path
               inkscape:connector-curvature="0"
               d="m 374.733,95.821 c -2.898,-4.655 -7.992,-7.49 -13.477,-7.49 H 337.983 V 59.769 c 0,-8.764 -7.103,-15.868 -15.868,-15.868 H 233.028 L 213.051,27.838 c -2.819,-2.269 -6.326,-3.507 -9.944,-3.507 h -53.422 c -8.764,0 -15.868,7.103 -15.868,15.868 v 143.339 c 0,8.764 7.103,15.868 15.868,15.868 h 172.43 c 6.046,0 11.562,-3.427 14.239,-8.849 l 39.135,-79.339 c 2.428,-4.919 2.137,-10.743 -0.756,-15.397 z M 165.554,56.067 h 31.963 l 19.978,16.063 c 2.819,2.269 6.326,3.507 9.944,3.507 h 78.81 V 88.331 H 198.347 c -5.517,0 -10.642,2.867 -13.525,7.574 l -19.269,31.413 V 56.067 Z M 312.251,167.67 h -134.22 l 29.197,-47.603 H 335.73 Z"
               id="path905"
               style="fill:#4d4d4d" />
          </g>
        </g>
        <g
           id="g915"
           style="fill:#4d4d4d">
          <g
             id="g913"
             style="fill:#4d4d4d">
            <path
               inkscape:connector-curvature="0"
               d="m 226.317,393.966 c -2.846,-4.861 -8.056,-7.844 -13.689,-7.844 H 189.355 V 357.56 c 0,-8.764 -7.103,-15.868 -15.868,-15.868 H 99.644 L 79.106,325.517 c -2.798,-2.2 -6.257,-3.401 -9.817,-3.401 H 15.868 C 7.103,322.116 0,329.22 0,337.984 v 133.818 c 0,8.764 7.103,15.868 15.868,15.868 h 157.62 c 5.739,0 11.033,-3.099 13.837,-8.114 l 39.141,-69.813 c 2.755,-4.908 2.702,-10.916 -0.149,-15.777 z M 31.736,353.852 h 32.058 l 20.538,16.175 c 2.798,2.2 6.257,3.401 9.817,3.401 h 63.471 v 12.694 H 64.529 c -5.189,0 -10.05,2.534 -13.017,6.791 L 31.735,421.285 V 353.852 Z M 164.189,455.935 H 46.27 l 26.542,-38.077 h 112.725 z"
               id="path911"
               style="fill:#4d4d4d" />
          </g>
        </g>
        <g
           id="g921"
           style="fill:#4d4d4d">
          <g
             id="g919"
             style="fill:#4d4d4d">
            <path
               inkscape:connector-curvature="0"
               d="m 509.826,393.966 c -2.851,-4.861 -8.061,-7.844 -13.694,-7.844 H 472.859 V 357.56 c 0,-8.764 -7.103,-15.868 -15.868,-15.868 h -73.843 l -20.543,-16.175 c -2.793,-2.2 -6.252,-3.401 -9.812,-3.401 h -53.421 c -8.764,0 -15.868,7.103 -15.868,15.868 v 133.818 c 0,8.764 7.104,15.868 15.868,15.868 h 157.62 c 5.739,0 11.033,-3.099 13.847,-8.114 l 39.135,-69.813 c 2.756,-4.908 2.698,-10.916 -0.148,-15.777 z M 315.24,353.852 h 32.058 l 20.543,16.175 c 2.793,2.2 6.252,3.401 9.812,3.401 h 63.471 v 12.694 h -93.091 c -5.194,0 -10.05,2.534 -13.017,6.791 L 315.24,421.285 Z M 447.698,455.935 H 329.775 l 26.536,-38.077 h 112.735 z"
               id="path917"
               style="fill:#4d4d4d" />
          </g>
        </g>
        <g
           id="g927"
           style="fill:#4d4d4d">
          <g
             id="g925"
             style="fill:#4d4d4d">
            <path
               inkscape:connector-curvature="0"
               d="m 256,225.323 c -16.915,0 -30.678,13.763 -30.678,30.678 0,16.915 13.763,30.678 30.678,30.678 16.92,0 30.678,-13.763 30.678,-30.678 0,-16.915 -13.758,-30.678 -30.678,-30.678 z m -1.058,30.678 c 0,-0.582 0.476,-1.058 1.058,-1.058 0.582,0 1.058,0.476 1.058,1.058 0,1.169 -2.116,1.169 -2.116,0 z"
               id="path923"
               style="fill:#4d4d4d" />
          </g>
        </g>
        <g
           id="g933"
           style="fill:#4d4d4d">
          <g
             id="g931"
             style="fill:#4d4d4d">
            <rect
               x="240.132"
               y="183.53799"
               width="31.736"
               height="58.181999"
               id="rect929"
               style="fill:#4d4d4d" />
          </g>
        </g>
        <g
           id="g939"
           style="fill:#4d4d4d">
          <g
             id="g937"
             style="fill:#4d4d4d">
            <rect
               x="113.19"
               y="240.133"
               width="128"
               height="31.736"
               id="rect935"
               style="fill:#4d4d4d" />
          </g>
        </g>
        <g
           id="g945"
           style="fill:#4d4d4d">
          <g
             id="g943"
             style="fill:#4d4d4d">
            <rect
               x="83.041"
               y="270.811"
               width="31.736"
               height="86.744003"
               id="rect941"
               style="fill:#4d4d4d" />
          </g>
        </g>
        <g
           id="g951"
           style="fill:#4d4d4d">
          <g
             id="g949"
             style="fill:#4d4d4d">
            <path
               inkscape:connector-curvature="0"
               d="m 98.909,225.323 c -16.915,0 -30.678,13.763 -30.678,30.678 0,16.915 13.763,30.678 30.678,30.678 16.915,0 30.678,-13.763 30.678,-30.678 0,-16.915 -13.763,-30.678 -30.678,-30.678 z m -1.058,30.678 c 0,-0.582 0.476,-1.058 1.058,-1.058 0.587,0 1.058,0.476 1.058,1.058 0,1.169 -2.116,1.169 -2.116,0 z"
               id="path947"
               style="fill:#4d4d4d" />
          </g>
        </g>
        <g
           id="g957"
           style="fill:#4d4d4d">
          <g
             id="g955"
             style="fill:#4d4d4d">
            <rect
               x="270.81"
               y="240.133"
               width="128"
               height="31.736"
               id="rect953"
               style="fill:#4d4d4d" />
          </g>
        </g>
        <g
           id="g963"
           style="fill:#4d4d4d">
          <g
             id="g961"
             style="fill:#4d4d4d">
            <rect
               x="397.22299"
               y="270.811"
               width="31.736"
               height="86.744003"
               id="rect959"
               style="fill:#4d4d4d" />
          </g>
        </g>
        <g
           id="g969"
           style="fill:#4d4d4d">
          <g
             id="g967"
             style="fill:#4d4d4d">
            <path
               inkscape:connector-curvature="0"
               d="m 413.091,225.323 c -16.915,0 -30.678,13.763 -30.678,30.678 0,16.915 13.763,30.678 30.678,30.678 16.915,0 30.683,-13.763 30.683,-30.678 0,-16.915 -13.768,-30.678 -30.683,-30.678 z m -1.053,30.678 c 0,-0.582 0.476,-1.058 1.053,-1.058 0.582,0 1.058,0.476 1.058,1.058 -0.006,1.158 -2.116,1.174 -2.111,0 z"
               id="path965"
               style="fill:#4d4d4d" />
          </g>
        </g>
        <g
           id="g971"
           style="fill:#4d4d4d" />
        <g
           id="g973"
           style="fill:#4d4d4d" />
        <g
           id="g975"
           style="fill:#4d4d4d" />
        <g
           id="g977"
           style="fill:#4d4d4d" />
        <g
           id="g979"
           style="fill:#4d4d4d" />
        <g
           id="g981"
           style="fill:#4d4d4d" />
        <g
           id="g983"
           style="fill:#4d4d4d" />
        <g
           id="g985"
           style="fill:#4d4d4d" />
        <g
           id="g987"
           style="fill:#4d4d4d" />
        <g
           id="g989"
           style="fill:#4d4d4d" />
        <g
           id="g991"
           style="fill:#4d4d4d" />
        <g
           id="g993"
           style="fill:#4d4d4d" />
        <g
           id="g995"
           style="fill:#4d4d4d" />
        <g
           id="g997"
           style="fill:#4d4d4d" />
        <g
           id="g999"
           style="fill:#4d4d4d" />
      </g>
    </g>
  </g>
</svg>
