<?xml version="1.0" encoding="UTF-8" standalone="no"?>
<!-- Created with Inkscape (http://www.inkscape.org/) -->

<svg
   xmlns:dc="http://purl.org/dc/elements/1.1/"
   xmlns:cc="http://creativecommons.org/ns#"
   xmlns:rdf="http://www.w3.org/1999/02/22-rdf-syntax-ns#"
   xmlns:svg="http://www.w3.org/2000/svg"
   xmlns="http://www.w3.org/2000/svg"
   xmlns:sodipodi="http://sodipodi.sourceforge.net/DTD/sodipodi-0.dtd"
   xmlns:inkscape="http://www.inkscape.org/namespaces/inkscape"
   width="43.259064mm"
   height="39.147568mm"
   viewBox="0 0 43.259065 39.147567"
   version="1.1"
   id="svg8"
   inkscape:version="0.92.3 (2405546, 2018-03-11)"
   sodipodi:docname="create_proj.svg"
   inkscape:export-filename="C:\Users\christoph.stepper\Documents\_GEOMGI\GIdailyhelpers\projmaker\figures\ico\create_proj.png"
   inkscape:export-xdpi="96"
   inkscape:export-ydpi="96">
  <defs
     id="defs2" />
  <sodipodi:namedview
     id="base"
     pagecolor="#ffffff"
     bordercolor="#666666"
     borderopacity="1.0"
     inkscape:pageopacity="0.0"
     inkscape:pageshadow="2"
     inkscape:zoom="1.4328264"
     inkscape:cx="410.92332"
     inkscape:cy="35.018875"
     inkscape:document-units="mm"
     inkscape:current-layer="g91"
     showgrid="false"
     inkscape:window-width="1920"
     inkscape:window-height="1017"
     inkscape:window-x="1912"
     inkscape:window-y="-8"
     inkscape:window-maximized="1"
     inkscape:snap-global="false"
     fit-margin-top="0"
     fit-margin-left="0"
     fit-margin-right="0"
     fit-margin-bottom="0" />
  <metadata
     id="metadata5">
    <rdf:RDF>
      <cc:Work
         rdf:about="">
        <dc:format>image/svg+xml</dc:format>
        <dc:type
           rdf:resource="http://purl.org/dc/dcmitype/StillImage" />
        <dc:title />
      </cc:Work>
    </rdf:RDF>
  </metadata>
  <g
     inkscape:label="Layer 1"
     inkscape:groupmode="layer"
     id="layer1"
     transform="translate(-18.185699,-162.39254)">
    <g
       id="g36"
       transform="matrix(0.26458333,0,0,0.26458333,29.654545,66.472935)" />
    <g
       id="g38"
       transform="matrix(0.26458333,0,0,0.26458333,29.654545,66.472935)" />
    <g
       id="g40"
       transform="matrix(0.26458333,0,0,0.26458333,29.654545,66.472935)" />
    <g
       id="g42"
       transform="matrix(0.26458333,0,0,0.26458333,29.654545,66.472935)" />
    <g
       id="g44"
       transform="matrix(0.26458333,0,0,0.26458333,29.654545,66.472935)" />
    <g
       id="g46"
       transform="matrix(0.26458333,0,0,0.26458333,29.654545,66.472935)" />
    <g
       id="g48"
       transform="matrix(0.26458333,0,0,0.26458333,29.654545,66.472935)" />
    <g
       id="g50"
       transform="matrix(0.26458333,0,0,0.26458333,29.654545,66.472935)" />
    <g
       id="g52"
       transform="matrix(0.26458333,0,0,0.26458333,29.654545,66.472935)" />
    <g
       id="g54"
       transform="matrix(0.26458333,0,0,0.26458333,29.654545,66.472935)" />
    <g
       id="g56"
       transform="matrix(0.26458333,0,0,0.26458333,29.654545,66.472935)" />
    <g
       id="g58"
       transform="matrix(0.26458333,0,0,0.26458333,29.654545,66.472935)" />
    <g
       id="g60"
       transform="matrix(0.26458333,0,0,0.26458333,29.654545,66.472935)" />
    <g
       id="g62"
       transform="matrix(0.26458333,0,0,0.26458333,29.654545,66.472935)" />
    <g
       id="g64"
       transform="matrix(0.26458333,0,0,0.26458333,29.654545,66.472935)" />
    <g
       id="g1128">
      <path
         transform="scale(0.26458333)"
         inkscape:connector-curvature="0"
         id="path92"
         d="m 509.89636,837.96429 c 32.58943,-8.54691 61.91195,-35.02913 74.27076,-67.07658 5.59859,-14.51763 7.24188,-24.486 6.6838,-40.54459 -0.54595,-15.70998 -2.41812,-23.9839 -8.21318,-36.29753 -6.1045,-12.97115 -6.12289,-12.94802 -6.16333,7.74777 -0.0397,20.32338 -1.39029,29.21722 -6.61813,43.58111 -3.82798,10.51765 -15.89884,29.42244 -17.66119,27.66008 -0.26023,-0.26024 0.26416,-3.60831 1.16532,-7.44016 2.19427,-9.33025 1.47067,-29.03168 -1.47337,-40.11602 -5.31425,-20.0081 -13.2297,-35.45576 -34.25737,-66.85608 -23.22775,-34.68565 -28.38561,-43.7337 -34.83828,-61.11423 -5.51013,-14.84175 -7.1152,-24.51021 -6.57426,-39.60137 l 0.45998,-12.83232 -3.73579,2.9588 c -6.99977,5.54391 -20.97459,21.06752 -26.53267,29.47318 -15.16558,22.93539 -22.56805,45.2043 -23.64193,71.12218 -0.89795,21.67181 2.06659,39.91129 9.66925,59.49058 1.61815,4.16724 2.6082,7.5768 2.2001,7.5768 -1.38486,0 -12.72474,-12.60046 -16.00436,-17.78346 -4.43572,-7.01011 -7.9377,-15.92468 -9.42347,-23.98824 -0.68057,-3.6936 -1.49975,-6.70708 -1.8204,-6.69665 -0.32066,0.0104 -2.78303,3.07877 -5.47192,6.81853 -6.84435,9.51921 -14.25312,25.19353 -17.53801,37.10414 -2.50252,9.07384 -2.78649,11.74582 -2.79126,26.26396 -0.006,18.65428 1.64457,26.32543 8.65756,40.23358 6.26711,12.42891 11.49277,19.55054 22.01809,30.00667 9.95936,9.89391 18.52748,16.18171 30.90802,22.68217 6.62491,3.47844 6.81612,3.67105 3.03046,3.05254 -12.66663,-2.06949 -40.66034,-14.3123 -55.8779,-24.43771 -13.1115,-8.72409 -19.3082,-14.3351 -30.71122,-27.80845 -39.27222,-46.40251 -53.55688,-72.27583 -62.06663,-112.41917 -2.58903,-12.21333 -2.78579,-14.82796 -2.8127,-37.37565 -0.0249,-20.88887 0.27956,-25.8558 2.20043,-35.89393 6.73257,-35.18312 20.95355,-68.24547 42.13142,-97.95128 l 6.12134,-8.58629 0.67402,11.61675 c 0.80265,13.83356 3.94447,25.58835 10.39477,38.89087 3.86384,7.96846 14.30349,23.45957 15.19836,22.55245 0.17856,-0.181 -0.35425,-5.32935 -1.184,-11.44077 -4.64869,-34.23905 3.89712,-74.35743 22.891,-107.46207 25.08829,-43.72665 70.55355,-80.51528 130.82285,-105.85651 17.92378,-7.53635 17.78577,-7.5121 13.36587,-2.34845 -13.23623,15.46356 -20.484,44.08674 -17.87384,70.58805 2.88704,29.31238 12.29455,52.09653 42.38492,102.65257 24.60694,41.34308 32.98049,57.85622 39.18583,77.27667 3.49232,10.92967 6.22755,23.37105 6.3755,28.9993 0.26781,10.18839 0.97827,9.63926 10.18322,-7.87073 4.79466,-9.12059 9.95766,-19.53758 11.47333,-23.14887 10.43764,-24.86912 15.21008,-50.19645 12.74698,-67.64826 -0.58561,-4.14929 -0.89993,-7.709 -0.69848,-7.91045 0.83927,-0.83927 12.03204,16.24401 17.21535,26.27539 17.11051,33.11434 22.97884,76.51683 17.62643,130.36581 -4.20359,42.2909 -15.66793,78.25332 -33.41448,104.81769 -7.46136,11.16871 -26.02563,30.38673 -37.25335,38.56524 -16.25878,11.84325 -40.25093,24.25057 -53.36297,27.59617 -7.73411,1.97338 -31.12966,4.50836 -41.08629,4.45181 l -8.08122,-0.0459 7.12704,-1.86915 z"
         style="opacity:1;fill:none;fill-opacity:1;stroke:none;stroke-width:4.04061031;stroke-miterlimit:4;stroke-dasharray:none;stroke-opacity:1" />
      <path
         transform="scale(0.26458333)"
         inkscape:connector-curvature="0"
         id="path94"
         d="m 509.89636,837.96429 c 32.58943,-8.54691 61.91195,-35.02913 74.27076,-67.07658 5.59859,-14.51763 7.24188,-24.486 6.6838,-40.54459 -0.54595,-15.70998 -2.41812,-23.9839 -8.21318,-36.29753 -6.1045,-12.97115 -6.12289,-12.94802 -6.16333,7.74777 -0.0397,20.32338 -1.39029,29.21722 -6.61813,43.58111 -3.82798,10.51765 -15.89884,29.42244 -17.66119,27.66008 -0.26023,-0.26024 0.26416,-3.60831 1.16532,-7.44016 2.19427,-9.33025 1.47067,-29.03168 -1.47337,-40.11602 -5.31425,-20.0081 -13.2297,-35.45576 -34.25737,-66.85608 -23.22775,-34.68565 -28.38561,-43.7337 -34.83828,-61.11423 -5.51013,-14.84175 -7.1152,-24.51021 -6.57426,-39.60137 l 0.45998,-12.83232 -3.73579,2.9588 c -6.99977,5.54391 -20.97459,21.06752 -26.53267,29.47318 -15.16558,22.93539 -22.56805,45.2043 -23.64193,71.12218 -0.89795,21.67181 2.06659,39.91129 9.66925,59.49058 1.61815,4.16724 2.6082,7.5768 2.2001,7.5768 -1.38486,0 -12.72474,-12.60046 -16.00436,-17.78346 -4.43572,-7.01011 -7.9377,-15.92468 -9.42347,-23.98824 -0.68057,-3.6936 -1.49975,-6.70708 -1.8204,-6.69665 -0.32066,0.0104 -2.78303,3.07877 -5.47192,6.81853 -6.84435,9.51921 -14.25312,25.19353 -17.53801,37.10414 -2.50252,9.07384 -2.78649,11.74582 -2.79126,26.26396 -0.006,18.65428 1.64457,26.32543 8.65756,40.23358 6.26711,12.42891 11.49277,19.55054 22.01809,30.00667 9.95936,9.89391 18.52748,16.18171 30.90802,22.68217 6.62491,3.47844 6.81612,3.67105 3.03046,3.05254 -12.66663,-2.06949 -40.66034,-14.3123 -55.8779,-24.43771 -13.1115,-8.72409 -19.3082,-14.3351 -30.71122,-27.80845 -39.27222,-46.40251 -53.55688,-72.27583 -62.06663,-112.41917 -2.58903,-12.21333 -2.78579,-14.82796 -2.8127,-37.37565 -0.0249,-20.88887 0.27956,-25.8558 2.20043,-35.89393 6.73257,-35.18312 20.95355,-68.24547 42.13142,-97.95128 l 6.12134,-8.58629 0.67402,11.61675 c 0.80265,13.83356 3.94447,25.58835 10.39477,38.89087 3.86384,7.96846 14.30349,23.45957 15.19836,22.55245 0.17856,-0.181 -0.35425,-5.32935 -1.184,-11.44077 -4.64869,-34.23905 3.89712,-74.35743 22.891,-107.46207 25.08829,-43.72665 70.55355,-80.51528 130.82285,-105.85651 17.92378,-7.53635 17.78577,-7.5121 13.36587,-2.34845 -13.23623,15.46356 -20.484,44.08674 -17.87384,70.58805 2.88704,29.31238 12.29455,52.09653 42.38492,102.65257 24.60694,41.34308 32.98049,57.85622 39.18583,77.27667 3.49232,10.92967 6.22755,23.37105 6.3755,28.9993 0.26781,10.18839 0.97827,9.63926 10.18322,-7.87073 4.79466,-9.12059 9.95766,-19.53758 11.47333,-23.14887 10.43764,-24.86912 15.21008,-50.19645 12.74698,-67.64826 -0.58561,-4.14929 -0.89993,-7.709 -0.69848,-7.91045 0.83927,-0.83927 12.03204,16.24401 17.21535,26.27539 17.11051,33.11434 22.97884,76.51683 17.62643,130.36581 -4.20359,42.2909 -15.66793,78.25332 -33.41448,104.81769 -7.46136,11.16871 -26.02563,30.38673 -37.25335,38.56524 -16.25878,11.84325 -40.25093,24.25057 -53.36297,27.59617 -7.73411,1.97338 -31.12966,4.50836 -41.08629,4.45181 l -8.08122,-0.0459 7.12704,-1.86915 z"
         style="opacity:1;fill:none;fill-opacity:1;stroke:none;stroke-width:4.04061031;stroke-miterlimit:4;stroke-dasharray:none;stroke-opacity:1" />
      <g
         transform="matrix(0.08449012,0,0,0.08449012,18.185699,160.33681)"
         id="g1056">
        <g
           id="g971"
           style="fill:#4d4d4d" />
        <g
           id="g973"
           style="fill:#4d4d4d" />
        <g
           id="g975"
           style="fill:#4d4d4d" />
        <g
           id="g977"
           style="fill:#4d4d4d" />
        <g
           id="g979"
           style="fill:#4d4d4d" />
        <g
           id="g981"
           style="fill:#4d4d4d" />
        <g
           id="g983"
           style="fill:#4d4d4d" />
        <g
           id="g985"
           style="fill:#4d4d4d" />
        <g
           id="g987"
           style="fill:#4d4d4d" />
        <g
           id="g989"
           style="fill:#4d4d4d" />
        <g
           id="g991"
           style="fill:#4d4d4d" />
        <g
           id="g993"
           style="fill:#4d4d4d" />
        <g
           id="g995"
           style="fill:#4d4d4d" />
        <g
           id="g997"
           style="fill:#4d4d4d" />
        <g
           id="g999"
           style="fill:#4d4d4d" />
        <g
           id="g91"
           transform="matrix(1.1767264,0,0,1.1767264,-60.044096,-176.08481)">
          <path
             style="fill:#ff6600"
             d="m 118.00781,305.57227 c 0.36957,54.03557 -0.73734,108.11365 0.5586,162.12304 3.73021,31.1552 33.97788,56.45703 65.41568,53.89749 46.90562,0.38449 120.42596,-0.19429 167.3313,0.25681 7.11754,23.12897 35.45668,35.83289 57.71485,26.88477 20.59042,-7.21344 33.54902,-31.80798 26.13867,-52.59571 -7.14016,-22.76816 -34.79696,-35.77766 -56.99219,-27.16992 -12.44615,4.40652 -22.8701,14.61337 -26.89844,27.26367 -49.90574,-0.24787 -126.45376,0.51923 -176.34073,-0.39844 -19.5646,-2.61604 -33.99863,-22.5314 -31.4668,-41.79296 v -57.08008 c 27.14638,0.0884 80.90632,-0.20055 108.05167,0.14258 7.11293,23.1293 35.45299,35.83785 57.71094,26.88867 20.59145,-7.21442 33.55291,-31.81003 26.14258,-52.59961 -7.14211,-22.7683 -34.79794,-35.77682 -56.99414,-27.16992 -12.44632,4.41168 -22.86818,14.6175 -26.89844,27.26953 H 143.46875 v -67.91992 h -25.46094 v 1 z"
             id="path74"
             inkscape:connector-curvature="0"
             sodipodi:nodetypes="ccccccccccccccccccccc" />
          <g
             id="g910"
             transform="matrix(0.63609071,0,0,0.63609071,71.229183,177.78279)"
             style="fill:#0000ff">
            <path
               inkscape:connector-curvature="0"
               d="M -4.566406,23.964844 V 200.76953 c 0.015625,13.22266 10.738281,23.94531 23.964844,23.95703 h 3.441406 c 13.226562,-0.0117 23.945312,-10.73437 23.960937,-23.95703 V 100.96484 C 46.828125,78.097656 65.359375,59.566406 88.226562,59.539062 H 230.39453 c -1.08984,-12.375 -11.44531,-21.867187 -23.87109,-21.882812 h -61.35157 c -4.74218,-0.0078 -9.26953,-2.003906 -12.47656,-5.5 L 110.43359,7.796875 C 105.88672,2.835938 99.46875,0.00390625 92.746094,0 H 19.394531 C 6.171875,0.0195312 -4.550781,10.734375 -4.566406,23.964844 Z m 0,0"
               id="path76"
               style="fill:#0000ff" />
            <path
               inkscape:connector-curvature="0"
               d="m 64.261719,100.96484 v 99.80469 c 0.01172,8.58594 -2.660157,16.96484 -7.644531,23.95703 H 246.61719 c 13.23047,-0.0117 23.94922,-10.73437 23.96484,-23.95703 V 100.96484 C 270.56641,87.738281 259.84766,77.019531 246.61719,77.003906 H 88.226562 C 75,77.019531 64.277344,87.738281 64.261719,100.96484 Z m 0,0"
               id="path78"
               style="fill:#0000ff" />
          </g>
        </g>
      </g>
    </g>
  </g>
</svg>
